G04 #@! TF.FileFunction,Copper,L2,Bot,Signal*
%FSLAX46Y46*%
G04 Gerber Fmt 4.6, Leading zero omitted, Abs format (unit mm)*
G04 Created by KiCad (PCBNEW 4.0.4-stable) date *
%MOMM*%
%LPD*%
G01*
G04 APERTURE LIST*
%ADD10C,0.100000*%
%ADD11C,1.524000*%
%ADD12C,0.600000*%
%ADD13C,0.250000*%
%ADD14C,0.254000*%
G04 APERTURE END LIST*
D10*
D11*
X158350000Y-90140000D03*
X158350000Y-92680000D03*
X158350000Y-95220000D03*
X158350000Y-97760000D03*
X158350000Y-100300000D03*
X158350000Y-102840000D03*
X158350000Y-105380000D03*
X158350000Y-107920000D03*
X158350000Y-110460000D03*
X158350000Y-113000000D03*
X158350000Y-115540000D03*
X158350000Y-118080000D03*
X158350000Y-120620000D03*
X158350000Y-123160000D03*
X158350000Y-125700000D03*
X158350000Y-128240000D03*
X158350000Y-130780000D03*
X158350000Y-133320000D03*
X158350000Y-135860000D03*
X145650000Y-135860000D03*
X145650000Y-133320000D03*
X145650000Y-130780000D03*
X145650000Y-128240000D03*
X145650000Y-125700000D03*
X145650000Y-123160000D03*
X145650000Y-120620000D03*
X145650000Y-118080000D03*
X145650000Y-115540000D03*
X145650000Y-113000000D03*
X145650000Y-110460000D03*
X145650000Y-107920000D03*
X145650000Y-105380000D03*
X145650000Y-102840000D03*
X145650000Y-100300000D03*
X145650000Y-97760000D03*
X145650000Y-95220000D03*
X145650000Y-92680000D03*
X145650000Y-90140000D03*
X158350000Y-87600000D03*
X145650000Y-87600000D03*
D12*
X145880400Y-72105300D03*
X148111800Y-71937500D03*
X148109000Y-73527000D03*
X148119100Y-74601100D03*
X148510200Y-76391300D03*
X149086300Y-77231300D03*
X153578100Y-78025000D03*
X154046000Y-76929000D03*
X154496300Y-76128600D03*
X154946600Y-74543300D03*
X155396900Y-72999200D03*
X155856000Y-72102100D03*
X155879000Y-71203200D03*
X155897200Y-70022100D03*
X155803700Y-69125800D03*
X158110200Y-69847800D03*
X147206700Y-81443000D03*
X157600200Y-83799200D03*
D13*
X145880400Y-78564100D02*
X145880400Y-72105300D01*
X147832000Y-80515700D02*
X145880400Y-78564100D01*
X147832000Y-90498000D02*
X147832000Y-80515700D01*
X145650000Y-92680000D02*
X147832000Y-90498000D01*
X146984300Y-73065000D02*
X148111800Y-71937500D01*
X146984300Y-79031100D02*
X146984300Y-73065000D01*
X148282300Y-80329100D02*
X146984300Y-79031100D01*
X148282300Y-92587700D02*
X148282300Y-80329100D01*
X145650000Y-95220000D02*
X148282300Y-92587700D01*
X147434600Y-74201400D02*
X148109000Y-73527000D01*
X147434600Y-78844500D02*
X147434600Y-74201400D01*
X148732600Y-80142500D02*
X147434600Y-78844500D01*
X148732600Y-97217400D02*
X148732600Y-80142500D01*
X145650000Y-100300000D02*
X148732600Y-97217400D01*
X147884900Y-74835300D02*
X148119100Y-74601100D01*
X147884900Y-77551100D02*
X147884900Y-74835300D01*
X149182900Y-78849100D02*
X147884900Y-77551100D01*
X149182900Y-99307100D02*
X149182900Y-78849100D01*
X145650000Y-102840000D02*
X149182900Y-99307100D01*
X148461000Y-76440500D02*
X148510200Y-76391300D01*
X148461000Y-77490300D02*
X148461000Y-76440500D01*
X149633200Y-78662500D02*
X148461000Y-77490300D01*
X149633200Y-103936800D02*
X149633200Y-78662500D01*
X145650000Y-107920000D02*
X149633200Y-103936800D01*
X150131900Y-78276900D02*
X149086300Y-77231300D01*
X150131900Y-108518100D02*
X150131900Y-78276900D01*
X145650000Y-113000000D02*
X150131900Y-108518100D01*
X152922100Y-78681000D02*
X153578100Y-78025000D01*
X152922100Y-117732100D02*
X152922100Y-78681000D01*
X158350000Y-123160000D02*
X152922100Y-117732100D01*
X154221100Y-77104100D02*
X154046000Y-76929000D01*
X154221100Y-78874200D02*
X154221100Y-77104100D01*
X153372500Y-79722800D02*
X154221100Y-78874200D01*
X153372500Y-113102500D02*
X153372500Y-79722800D01*
X158350000Y-118080000D02*
X153372500Y-113102500D01*
X153822800Y-108472800D02*
X158350000Y-113000000D01*
X153822800Y-79909400D02*
X153822800Y-108472800D01*
X154671400Y-79060800D02*
X153822800Y-79909400D01*
X154671400Y-76303700D02*
X154671400Y-79060800D01*
X154496300Y-76128600D02*
X154671400Y-76303700D01*
X154273100Y-106383100D02*
X158350000Y-110460000D01*
X154273100Y-80096000D02*
X154273100Y-106383100D01*
X155121700Y-79247400D02*
X154273100Y-80096000D01*
X155121700Y-74718400D02*
X155121700Y-79247400D01*
X154946600Y-74543300D02*
X155121700Y-74718400D01*
X154723400Y-101753400D02*
X158350000Y-105380000D01*
X154723400Y-80282600D02*
X154723400Y-101753400D01*
X155572000Y-79434000D02*
X154723400Y-80282600D01*
X155572000Y-73174300D02*
X155572000Y-79434000D01*
X155396900Y-72999200D02*
X155572000Y-73174300D01*
X155173700Y-99663700D02*
X158350000Y-102840000D01*
X155173700Y-80469200D02*
X155173700Y-99663700D01*
X156022300Y-79620600D02*
X155173700Y-80469200D01*
X156022300Y-72268400D02*
X156022300Y-79620600D01*
X155856000Y-72102100D02*
X156022300Y-72268400D01*
X155624000Y-97574000D02*
X158350000Y-100300000D01*
X155624000Y-80655800D02*
X155624000Y-97574000D01*
X156481400Y-79798400D02*
X155624000Y-80655800D01*
X156481400Y-71805600D02*
X156481400Y-79798400D01*
X155879000Y-71203200D02*
X156481400Y-71805600D01*
X156074300Y-92944300D02*
X158350000Y-95220000D01*
X156074300Y-81479300D02*
X156074300Y-92944300D01*
X156945000Y-80608600D02*
X156074300Y-81479300D01*
X156945000Y-71069900D02*
X156945000Y-80608600D01*
X155897200Y-70022100D02*
X156945000Y-71069900D01*
X156524600Y-90854600D02*
X158350000Y-92680000D01*
X156524600Y-81665900D02*
X156524600Y-90854600D01*
X157402700Y-80787800D02*
X156524600Y-81665900D01*
X157402700Y-70638000D02*
X157402700Y-80787800D01*
X155890500Y-69125800D02*
X157402700Y-70638000D01*
X155803700Y-69125800D02*
X155890500Y-69125800D01*
X156974900Y-88764900D02*
X158350000Y-90140000D01*
X156974900Y-83540200D02*
X156974900Y-88764900D01*
X158110200Y-82404900D02*
X156974900Y-83540200D01*
X158110200Y-69847800D02*
X158110200Y-82404900D01*
X147206700Y-88583300D02*
X147206700Y-81443000D01*
X145650000Y-90140000D02*
X147206700Y-88583300D01*
X157600200Y-86850200D02*
X157600200Y-83799200D01*
X158350000Y-87600000D02*
X157600200Y-86850200D01*
X150730000Y-125700000D02*
X145650000Y-120620000D01*
X158350000Y-125700000D02*
X150730000Y-125700000D01*
D14*
G36*
X159790000Y-137290000D02*
X144210000Y-137290000D01*
X144210000Y-123436661D01*
X144252758Y-123436661D01*
X144464990Y-123950303D01*
X144857630Y-124343629D01*
X145065512Y-124429949D01*
X144859697Y-124514990D01*
X144466371Y-124907630D01*
X144253243Y-125420900D01*
X144252758Y-125976661D01*
X144464990Y-126490303D01*
X144857630Y-126883629D01*
X145065512Y-126969949D01*
X144859697Y-127054990D01*
X144466371Y-127447630D01*
X144253243Y-127960900D01*
X144252758Y-128516661D01*
X144464990Y-129030303D01*
X144857630Y-129423629D01*
X145065512Y-129509949D01*
X144859697Y-129594990D01*
X144466371Y-129987630D01*
X144253243Y-130500900D01*
X144252758Y-131056661D01*
X144464990Y-131570303D01*
X144857630Y-131963629D01*
X145065512Y-132049949D01*
X144859697Y-132134990D01*
X144466371Y-132527630D01*
X144253243Y-133040900D01*
X144252758Y-133596661D01*
X144464990Y-134110303D01*
X144857630Y-134503629D01*
X145065512Y-134589949D01*
X144859697Y-134674990D01*
X144466371Y-135067630D01*
X144253243Y-135580900D01*
X144252758Y-136136661D01*
X144464990Y-136650303D01*
X144857630Y-137043629D01*
X145370900Y-137256757D01*
X145926661Y-137257242D01*
X146440303Y-137045010D01*
X146833629Y-136652370D01*
X147046757Y-136139100D01*
X147047242Y-135583339D01*
X146835010Y-135069697D01*
X146442370Y-134676371D01*
X146234488Y-134590051D01*
X146440303Y-134505010D01*
X146833629Y-134112370D01*
X147046757Y-133599100D01*
X147047242Y-133043339D01*
X146835010Y-132529697D01*
X146442370Y-132136371D01*
X146234488Y-132050051D01*
X146440303Y-131965010D01*
X146833629Y-131572370D01*
X147046757Y-131059100D01*
X147047242Y-130503339D01*
X146835010Y-129989697D01*
X146442370Y-129596371D01*
X146234488Y-129510051D01*
X146440303Y-129425010D01*
X146833629Y-129032370D01*
X147046757Y-128519100D01*
X147046759Y-128516661D01*
X156952758Y-128516661D01*
X157164990Y-129030303D01*
X157557630Y-129423629D01*
X157765512Y-129509949D01*
X157559697Y-129594990D01*
X157166371Y-129987630D01*
X156953243Y-130500900D01*
X156952758Y-131056661D01*
X157164990Y-131570303D01*
X157557630Y-131963629D01*
X157765512Y-132049949D01*
X157559697Y-132134990D01*
X157166371Y-132527630D01*
X156953243Y-133040900D01*
X156952758Y-133596661D01*
X157164990Y-134110303D01*
X157557630Y-134503629D01*
X157765512Y-134589949D01*
X157559697Y-134674990D01*
X157166371Y-135067630D01*
X156953243Y-135580900D01*
X156952758Y-136136661D01*
X157164990Y-136650303D01*
X157557630Y-137043629D01*
X158070900Y-137256757D01*
X158626661Y-137257242D01*
X159140303Y-137045010D01*
X159533629Y-136652370D01*
X159746757Y-136139100D01*
X159747242Y-135583339D01*
X159535010Y-135069697D01*
X159142370Y-134676371D01*
X158934488Y-134590051D01*
X159140303Y-134505010D01*
X159533629Y-134112370D01*
X159746757Y-133599100D01*
X159747242Y-133043339D01*
X159535010Y-132529697D01*
X159142370Y-132136371D01*
X158934488Y-132050051D01*
X159140303Y-131965010D01*
X159533629Y-131572370D01*
X159746757Y-131059100D01*
X159747242Y-130503339D01*
X159535010Y-129989697D01*
X159142370Y-129596371D01*
X158934488Y-129510051D01*
X159140303Y-129425010D01*
X159533629Y-129032370D01*
X159746757Y-128519100D01*
X159747242Y-127963339D01*
X159535010Y-127449697D01*
X159142370Y-127056371D01*
X158950273Y-126976605D01*
X159081143Y-126922397D01*
X159150608Y-126680213D01*
X158350000Y-125879605D01*
X157549392Y-126680213D01*
X157618857Y-126922397D01*
X157759318Y-126972509D01*
X157559697Y-127054990D01*
X157166371Y-127447630D01*
X156953243Y-127960900D01*
X156952758Y-128516661D01*
X147046759Y-128516661D01*
X147047242Y-127963339D01*
X146835010Y-127449697D01*
X146442370Y-127056371D01*
X146234488Y-126970051D01*
X146440303Y-126885010D01*
X146833629Y-126492370D01*
X147046757Y-125979100D01*
X147047181Y-125492302D01*
X156940856Y-125492302D01*
X156968638Y-126047368D01*
X157127603Y-126431143D01*
X157369787Y-126500608D01*
X158170395Y-125700000D01*
X158529605Y-125700000D01*
X159330213Y-126500608D01*
X159572397Y-126431143D01*
X159759144Y-125907698D01*
X159731362Y-125352632D01*
X159572397Y-124968857D01*
X159330213Y-124899392D01*
X158529605Y-125700000D01*
X158170395Y-125700000D01*
X157369787Y-124899392D01*
X157127603Y-124968857D01*
X156940856Y-125492302D01*
X147047181Y-125492302D01*
X147047242Y-125423339D01*
X146835010Y-124909697D01*
X146442370Y-124516371D01*
X146234488Y-124430051D01*
X146440303Y-124345010D01*
X146833629Y-123952370D01*
X147046757Y-123439100D01*
X147047242Y-122883339D01*
X146835010Y-122369697D01*
X146442370Y-121976371D01*
X146250273Y-121896605D01*
X146381143Y-121842397D01*
X146450608Y-121600213D01*
X145650000Y-120799605D01*
X144849392Y-121600213D01*
X144918857Y-121842397D01*
X145059318Y-121892509D01*
X144859697Y-121974990D01*
X144466371Y-122367630D01*
X144253243Y-122880900D01*
X144252758Y-123436661D01*
X144210000Y-123436661D01*
X144210000Y-120412302D01*
X144240856Y-120412302D01*
X144268638Y-120967368D01*
X144427603Y-121351143D01*
X144669787Y-121420608D01*
X145470395Y-120620000D01*
X145829605Y-120620000D01*
X146630213Y-121420608D01*
X146872397Y-121351143D01*
X147059144Y-120827698D01*
X147031362Y-120272632D01*
X146872397Y-119888857D01*
X146630213Y-119819392D01*
X145829605Y-120620000D01*
X145470395Y-120620000D01*
X144669787Y-119819392D01*
X144427603Y-119888857D01*
X144240856Y-120412302D01*
X144210000Y-120412302D01*
X144210000Y-92956661D01*
X144252758Y-92956661D01*
X144464990Y-93470303D01*
X144857630Y-93863629D01*
X145065512Y-93949949D01*
X144859697Y-94034990D01*
X144466371Y-94427630D01*
X144253243Y-94940900D01*
X144252758Y-95496661D01*
X144464990Y-96010303D01*
X144857630Y-96403629D01*
X145065512Y-96489949D01*
X144859697Y-96574990D01*
X144466371Y-96967630D01*
X144253243Y-97480900D01*
X144252758Y-98036661D01*
X144464990Y-98550303D01*
X144857630Y-98943629D01*
X145065512Y-99029949D01*
X144859697Y-99114990D01*
X144466371Y-99507630D01*
X144253243Y-100020900D01*
X144252758Y-100576661D01*
X144464990Y-101090303D01*
X144857630Y-101483629D01*
X145065512Y-101569949D01*
X144859697Y-101654990D01*
X144466371Y-102047630D01*
X144253243Y-102560900D01*
X144252758Y-103116661D01*
X144464990Y-103630303D01*
X144857630Y-104023629D01*
X145065512Y-104109949D01*
X144859697Y-104194990D01*
X144466371Y-104587630D01*
X144253243Y-105100900D01*
X144252758Y-105656661D01*
X144464990Y-106170303D01*
X144857630Y-106563629D01*
X145065512Y-106649949D01*
X144859697Y-106734990D01*
X144466371Y-107127630D01*
X144253243Y-107640900D01*
X144252758Y-108196661D01*
X144464990Y-108710303D01*
X144857630Y-109103629D01*
X145065512Y-109189949D01*
X144859697Y-109274990D01*
X144466371Y-109667630D01*
X144253243Y-110180900D01*
X144252758Y-110736661D01*
X144464990Y-111250303D01*
X144857630Y-111643629D01*
X145065512Y-111729949D01*
X144859697Y-111814990D01*
X144466371Y-112207630D01*
X144253243Y-112720900D01*
X144252758Y-113276661D01*
X144464990Y-113790303D01*
X144857630Y-114183629D01*
X145065512Y-114269949D01*
X144859697Y-114354990D01*
X144466371Y-114747630D01*
X144253243Y-115260900D01*
X144252758Y-115816661D01*
X144464990Y-116330303D01*
X144857630Y-116723629D01*
X145065512Y-116809949D01*
X144859697Y-116894990D01*
X144466371Y-117287630D01*
X144253243Y-117800900D01*
X144252758Y-118356661D01*
X144464990Y-118870303D01*
X144857630Y-119263629D01*
X145049727Y-119343395D01*
X144918857Y-119397603D01*
X144849392Y-119639787D01*
X145650000Y-120440395D01*
X146450608Y-119639787D01*
X146381143Y-119397603D01*
X146240682Y-119347491D01*
X146440303Y-119265010D01*
X146833629Y-118872370D01*
X147046757Y-118359100D01*
X147047242Y-117803339D01*
X146835010Y-117289697D01*
X146442370Y-116896371D01*
X146234488Y-116810051D01*
X146440303Y-116725010D01*
X146833629Y-116332370D01*
X147046757Y-115819100D01*
X147047242Y-115263339D01*
X146835010Y-114749697D01*
X146442370Y-114356371D01*
X146234488Y-114270051D01*
X146440303Y-114185010D01*
X146833629Y-113792370D01*
X147046757Y-113279100D01*
X147047242Y-112723339D01*
X147033857Y-112690945D01*
X150669301Y-109055501D01*
X150834048Y-108808939D01*
X150891900Y-108518100D01*
X150891900Y-78276900D01*
X150834048Y-77986061D01*
X150669301Y-77739499D01*
X150021422Y-77091620D01*
X150021462Y-77046133D01*
X149879417Y-76702357D01*
X149616627Y-76439108D01*
X149445221Y-76367934D01*
X149445362Y-76206133D01*
X149303317Y-75862357D01*
X149040527Y-75599108D01*
X148696999Y-75456462D01*
X148644900Y-75456417D01*
X148644900Y-75395516D01*
X148648043Y-75394217D01*
X148911292Y-75131427D01*
X149053938Y-74787899D01*
X149054262Y-74415933D01*
X148912217Y-74072157D01*
X148899299Y-74059217D01*
X148901192Y-74057327D01*
X149043838Y-73713799D01*
X149044162Y-73341833D01*
X148902117Y-72998057D01*
X148639327Y-72734808D01*
X148634974Y-72733001D01*
X148640743Y-72730617D01*
X148903992Y-72467827D01*
X149046638Y-72124299D01*
X149046962Y-71752333D01*
X148904917Y-71408557D01*
X148642127Y-71145308D01*
X148298599Y-71002662D01*
X147926633Y-71002338D01*
X147582857Y-71144383D01*
X147319608Y-71407173D01*
X147176962Y-71750701D01*
X147176921Y-71797577D01*
X146815354Y-72159144D01*
X146815562Y-71920133D01*
X146673517Y-71576357D01*
X146410727Y-71313108D01*
X146067199Y-71170462D01*
X145695233Y-71170138D01*
X145351457Y-71312183D01*
X145088208Y-71574973D01*
X144945562Y-71918501D01*
X144945238Y-72290467D01*
X145087283Y-72634243D01*
X145120400Y-72667418D01*
X145120400Y-78564100D01*
X145178252Y-78854939D01*
X145342999Y-79101501D01*
X147072000Y-80830502D01*
X147072000Y-90183198D01*
X147051916Y-90203282D01*
X147031362Y-89792632D01*
X146872397Y-89408857D01*
X146630213Y-89339392D01*
X145829605Y-90140000D01*
X145843748Y-90154143D01*
X145664143Y-90333748D01*
X145650000Y-90319605D01*
X144849392Y-91120213D01*
X144918857Y-91362397D01*
X145059318Y-91412509D01*
X144859697Y-91494990D01*
X144466371Y-91887630D01*
X144253243Y-92400900D01*
X144252758Y-92956661D01*
X144210000Y-92956661D01*
X144210000Y-89932302D01*
X144240856Y-89932302D01*
X144268638Y-90487368D01*
X144427603Y-90871143D01*
X144669787Y-90940608D01*
X145470395Y-90140000D01*
X144669787Y-89339392D01*
X144427603Y-89408857D01*
X144240856Y-89932302D01*
X144210000Y-89932302D01*
X144210000Y-87876661D01*
X144252758Y-87876661D01*
X144464990Y-88390303D01*
X144857630Y-88783629D01*
X145049727Y-88863395D01*
X144918857Y-88917603D01*
X144849392Y-89159787D01*
X145650000Y-89960395D01*
X146450608Y-89159787D01*
X146381143Y-88917603D01*
X146240682Y-88867491D01*
X146440303Y-88785010D01*
X146833629Y-88392370D01*
X147046757Y-87879100D01*
X147047242Y-87323339D01*
X146835010Y-86809697D01*
X146442370Y-86416371D01*
X145929100Y-86203243D01*
X145373339Y-86202758D01*
X144859697Y-86414990D01*
X144466371Y-86807630D01*
X144253243Y-87320900D01*
X144252758Y-87876661D01*
X144210000Y-87876661D01*
X144210000Y-70127000D01*
X154750000Y-70127000D01*
X154796159Y-70118315D01*
X154838553Y-70091035D01*
X154866994Y-70049410D01*
X154877000Y-70000000D01*
X154877000Y-69331447D01*
X155010583Y-69654743D01*
X155029477Y-69673670D01*
X154962362Y-69835301D01*
X154962038Y-70207267D01*
X155104083Y-70551043D01*
X155156375Y-70603427D01*
X155086808Y-70672873D01*
X154944162Y-71016401D01*
X154943838Y-71388367D01*
X155041659Y-71625113D01*
X154921162Y-71915301D01*
X154920928Y-72184196D01*
X154867957Y-72206083D01*
X154604708Y-72468873D01*
X154462062Y-72812401D01*
X154461738Y-73184367D01*
X154603783Y-73528143D01*
X154706356Y-73630895D01*
X154417657Y-73750183D01*
X154154408Y-74012973D01*
X154011762Y-74356501D01*
X154011438Y-74728467D01*
X154153483Y-75072243D01*
X154285174Y-75204164D01*
X153967357Y-75335483D01*
X153704108Y-75598273D01*
X153561462Y-75941801D01*
X153561309Y-76117599D01*
X153517057Y-76135883D01*
X153253808Y-76398673D01*
X153111162Y-76742201D01*
X153110838Y-77114167D01*
X153143389Y-77192947D01*
X153049157Y-77231883D01*
X152785908Y-77494673D01*
X152643262Y-77838201D01*
X152643221Y-77885077D01*
X152384699Y-78143599D01*
X152219952Y-78390161D01*
X152162100Y-78681000D01*
X152162100Y-117732100D01*
X152219952Y-118022939D01*
X152384699Y-118269501D01*
X156965817Y-122850619D01*
X156953243Y-122880900D01*
X156952758Y-123436661D01*
X157164990Y-123950303D01*
X157557630Y-124343629D01*
X157749727Y-124423395D01*
X157618857Y-124477603D01*
X157549392Y-124719787D01*
X158350000Y-125520395D01*
X159150608Y-124719787D01*
X159081143Y-124477603D01*
X158940682Y-124427491D01*
X159140303Y-124345010D01*
X159533629Y-123952370D01*
X159746757Y-123439100D01*
X159747242Y-122883339D01*
X159535010Y-122369697D01*
X159142370Y-121976371D01*
X158934488Y-121890051D01*
X159140303Y-121805010D01*
X159533629Y-121412370D01*
X159746757Y-120899100D01*
X159747242Y-120343339D01*
X159535010Y-119829697D01*
X159142370Y-119436371D01*
X158934488Y-119350051D01*
X159140303Y-119265010D01*
X159533629Y-118872370D01*
X159746757Y-118359100D01*
X159747242Y-117803339D01*
X159535010Y-117289697D01*
X159142370Y-116896371D01*
X158934488Y-116810051D01*
X159140303Y-116725010D01*
X159533629Y-116332370D01*
X159746757Y-115819100D01*
X159747242Y-115263339D01*
X159535010Y-114749697D01*
X159142370Y-114356371D01*
X158934488Y-114270051D01*
X159140303Y-114185010D01*
X159533629Y-113792370D01*
X159746757Y-113279100D01*
X159747242Y-112723339D01*
X159535010Y-112209697D01*
X159142370Y-111816371D01*
X158934488Y-111730051D01*
X159140303Y-111645010D01*
X159533629Y-111252370D01*
X159746757Y-110739100D01*
X159747242Y-110183339D01*
X159535010Y-109669697D01*
X159142370Y-109276371D01*
X158934488Y-109190051D01*
X159140303Y-109105010D01*
X159533629Y-108712370D01*
X159746757Y-108199100D01*
X159747242Y-107643339D01*
X159535010Y-107129697D01*
X159142370Y-106736371D01*
X158934488Y-106650051D01*
X159140303Y-106565010D01*
X159533629Y-106172370D01*
X159746757Y-105659100D01*
X159747242Y-105103339D01*
X159535010Y-104589697D01*
X159142370Y-104196371D01*
X158934488Y-104110051D01*
X159140303Y-104025010D01*
X159533629Y-103632370D01*
X159746757Y-103119100D01*
X159747242Y-102563339D01*
X159535010Y-102049697D01*
X159142370Y-101656371D01*
X158934488Y-101570051D01*
X159140303Y-101485010D01*
X159533629Y-101092370D01*
X159746757Y-100579100D01*
X159747242Y-100023339D01*
X159535010Y-99509697D01*
X159142370Y-99116371D01*
X158934488Y-99030051D01*
X159140303Y-98945010D01*
X159533629Y-98552370D01*
X159746757Y-98039100D01*
X159747242Y-97483339D01*
X159535010Y-96969697D01*
X159142370Y-96576371D01*
X158934488Y-96490051D01*
X159140303Y-96405010D01*
X159533629Y-96012370D01*
X159746757Y-95499100D01*
X159747242Y-94943339D01*
X159535010Y-94429697D01*
X159142370Y-94036371D01*
X158934488Y-93950051D01*
X159140303Y-93865010D01*
X159533629Y-93472370D01*
X159746757Y-92959100D01*
X159747242Y-92403339D01*
X159535010Y-91889697D01*
X159142370Y-91496371D01*
X158934488Y-91410051D01*
X159140303Y-91325010D01*
X159533629Y-90932370D01*
X159746757Y-90419100D01*
X159747242Y-89863339D01*
X159535010Y-89349697D01*
X159142370Y-88956371D01*
X158950273Y-88876605D01*
X159081143Y-88822397D01*
X159150608Y-88580213D01*
X158350000Y-87779605D01*
X158335858Y-87793748D01*
X158156253Y-87614143D01*
X158170395Y-87600000D01*
X158529605Y-87600000D01*
X159330213Y-88400608D01*
X159572397Y-88331143D01*
X159759144Y-87807698D01*
X159731362Y-87252632D01*
X159572397Y-86868857D01*
X159330213Y-86799392D01*
X158529605Y-87600000D01*
X158170395Y-87600000D01*
X158156253Y-87585858D01*
X158335858Y-87406253D01*
X158350000Y-87420395D01*
X159150608Y-86619787D01*
X159081143Y-86377603D01*
X158557698Y-86190856D01*
X158002632Y-86218638D01*
X157734900Y-86329536D01*
X157734900Y-83855002D01*
X158647601Y-82942301D01*
X158812348Y-82695739D01*
X158870200Y-82404900D01*
X158870200Y-70410263D01*
X158902392Y-70378127D01*
X159045038Y-70034599D01*
X159045362Y-69662633D01*
X158903317Y-69318857D01*
X158640527Y-69055608D01*
X158296999Y-68912962D01*
X157925033Y-68912638D01*
X157581257Y-69054683D01*
X157318008Y-69317473D01*
X157270760Y-69431258D01*
X156709800Y-68870298D01*
X156596817Y-68596857D01*
X156334027Y-68333608D01*
X155990499Y-68190962D01*
X155618533Y-68190638D01*
X155274757Y-68332683D01*
X155011508Y-68595473D01*
X154877000Y-68919403D01*
X154877000Y-68552606D01*
X155589803Y-67839803D01*
X155616994Y-67799410D01*
X155627000Y-67750000D01*
X155627000Y-67552606D01*
X155802606Y-67377000D01*
X156000000Y-67377000D01*
X156046159Y-67368315D01*
X156088553Y-67341035D01*
X156116994Y-67299410D01*
X156127000Y-67250000D01*
X156127000Y-66210000D01*
X159790000Y-66210000D01*
X159790000Y-137290000D01*
X159790000Y-137290000D01*
G37*
X159790000Y-137290000D02*
X144210000Y-137290000D01*
X144210000Y-123436661D01*
X144252758Y-123436661D01*
X144464990Y-123950303D01*
X144857630Y-124343629D01*
X145065512Y-124429949D01*
X144859697Y-124514990D01*
X144466371Y-124907630D01*
X144253243Y-125420900D01*
X144252758Y-125976661D01*
X144464990Y-126490303D01*
X144857630Y-126883629D01*
X145065512Y-126969949D01*
X144859697Y-127054990D01*
X144466371Y-127447630D01*
X144253243Y-127960900D01*
X144252758Y-128516661D01*
X144464990Y-129030303D01*
X144857630Y-129423629D01*
X145065512Y-129509949D01*
X144859697Y-129594990D01*
X144466371Y-129987630D01*
X144253243Y-130500900D01*
X144252758Y-131056661D01*
X144464990Y-131570303D01*
X144857630Y-131963629D01*
X145065512Y-132049949D01*
X144859697Y-132134990D01*
X144466371Y-132527630D01*
X144253243Y-133040900D01*
X144252758Y-133596661D01*
X144464990Y-134110303D01*
X144857630Y-134503629D01*
X145065512Y-134589949D01*
X144859697Y-134674990D01*
X144466371Y-135067630D01*
X144253243Y-135580900D01*
X144252758Y-136136661D01*
X144464990Y-136650303D01*
X144857630Y-137043629D01*
X145370900Y-137256757D01*
X145926661Y-137257242D01*
X146440303Y-137045010D01*
X146833629Y-136652370D01*
X147046757Y-136139100D01*
X147047242Y-135583339D01*
X146835010Y-135069697D01*
X146442370Y-134676371D01*
X146234488Y-134590051D01*
X146440303Y-134505010D01*
X146833629Y-134112370D01*
X147046757Y-133599100D01*
X147047242Y-133043339D01*
X146835010Y-132529697D01*
X146442370Y-132136371D01*
X146234488Y-132050051D01*
X146440303Y-131965010D01*
X146833629Y-131572370D01*
X147046757Y-131059100D01*
X147047242Y-130503339D01*
X146835010Y-129989697D01*
X146442370Y-129596371D01*
X146234488Y-129510051D01*
X146440303Y-129425010D01*
X146833629Y-129032370D01*
X147046757Y-128519100D01*
X147046759Y-128516661D01*
X156952758Y-128516661D01*
X157164990Y-129030303D01*
X157557630Y-129423629D01*
X157765512Y-129509949D01*
X157559697Y-129594990D01*
X157166371Y-129987630D01*
X156953243Y-130500900D01*
X156952758Y-131056661D01*
X157164990Y-131570303D01*
X157557630Y-131963629D01*
X157765512Y-132049949D01*
X157559697Y-132134990D01*
X157166371Y-132527630D01*
X156953243Y-133040900D01*
X156952758Y-133596661D01*
X157164990Y-134110303D01*
X157557630Y-134503629D01*
X157765512Y-134589949D01*
X157559697Y-134674990D01*
X157166371Y-135067630D01*
X156953243Y-135580900D01*
X156952758Y-136136661D01*
X157164990Y-136650303D01*
X157557630Y-137043629D01*
X158070900Y-137256757D01*
X158626661Y-137257242D01*
X159140303Y-137045010D01*
X159533629Y-136652370D01*
X159746757Y-136139100D01*
X159747242Y-135583339D01*
X159535010Y-135069697D01*
X159142370Y-134676371D01*
X158934488Y-134590051D01*
X159140303Y-134505010D01*
X159533629Y-134112370D01*
X159746757Y-133599100D01*
X159747242Y-133043339D01*
X159535010Y-132529697D01*
X159142370Y-132136371D01*
X158934488Y-132050051D01*
X159140303Y-131965010D01*
X159533629Y-131572370D01*
X159746757Y-131059100D01*
X159747242Y-130503339D01*
X159535010Y-129989697D01*
X159142370Y-129596371D01*
X158934488Y-129510051D01*
X159140303Y-129425010D01*
X159533629Y-129032370D01*
X159746757Y-128519100D01*
X159747242Y-127963339D01*
X159535010Y-127449697D01*
X159142370Y-127056371D01*
X158950273Y-126976605D01*
X159081143Y-126922397D01*
X159150608Y-126680213D01*
X158350000Y-125879605D01*
X157549392Y-126680213D01*
X157618857Y-126922397D01*
X157759318Y-126972509D01*
X157559697Y-127054990D01*
X157166371Y-127447630D01*
X156953243Y-127960900D01*
X156952758Y-128516661D01*
X147046759Y-128516661D01*
X147047242Y-127963339D01*
X146835010Y-127449697D01*
X146442370Y-127056371D01*
X146234488Y-126970051D01*
X146440303Y-126885010D01*
X146833629Y-126492370D01*
X147046757Y-125979100D01*
X147047181Y-125492302D01*
X156940856Y-125492302D01*
X156968638Y-126047368D01*
X157127603Y-126431143D01*
X157369787Y-126500608D01*
X158170395Y-125700000D01*
X158529605Y-125700000D01*
X159330213Y-126500608D01*
X159572397Y-126431143D01*
X159759144Y-125907698D01*
X159731362Y-125352632D01*
X159572397Y-124968857D01*
X159330213Y-124899392D01*
X158529605Y-125700000D01*
X158170395Y-125700000D01*
X157369787Y-124899392D01*
X157127603Y-124968857D01*
X156940856Y-125492302D01*
X147047181Y-125492302D01*
X147047242Y-125423339D01*
X146835010Y-124909697D01*
X146442370Y-124516371D01*
X146234488Y-124430051D01*
X146440303Y-124345010D01*
X146833629Y-123952370D01*
X147046757Y-123439100D01*
X147047242Y-122883339D01*
X146835010Y-122369697D01*
X146442370Y-121976371D01*
X146250273Y-121896605D01*
X146381143Y-121842397D01*
X146450608Y-121600213D01*
X145650000Y-120799605D01*
X144849392Y-121600213D01*
X144918857Y-121842397D01*
X145059318Y-121892509D01*
X144859697Y-121974990D01*
X144466371Y-122367630D01*
X144253243Y-122880900D01*
X144252758Y-123436661D01*
X144210000Y-123436661D01*
X144210000Y-120412302D01*
X144240856Y-120412302D01*
X144268638Y-120967368D01*
X144427603Y-121351143D01*
X144669787Y-121420608D01*
X145470395Y-120620000D01*
X145829605Y-120620000D01*
X146630213Y-121420608D01*
X146872397Y-121351143D01*
X147059144Y-120827698D01*
X147031362Y-120272632D01*
X146872397Y-119888857D01*
X146630213Y-119819392D01*
X145829605Y-120620000D01*
X145470395Y-120620000D01*
X144669787Y-119819392D01*
X144427603Y-119888857D01*
X144240856Y-120412302D01*
X144210000Y-120412302D01*
X144210000Y-92956661D01*
X144252758Y-92956661D01*
X144464990Y-93470303D01*
X144857630Y-93863629D01*
X145065512Y-93949949D01*
X144859697Y-94034990D01*
X144466371Y-94427630D01*
X144253243Y-94940900D01*
X144252758Y-95496661D01*
X144464990Y-96010303D01*
X144857630Y-96403629D01*
X145065512Y-96489949D01*
X144859697Y-96574990D01*
X144466371Y-96967630D01*
X144253243Y-97480900D01*
X144252758Y-98036661D01*
X144464990Y-98550303D01*
X144857630Y-98943629D01*
X145065512Y-99029949D01*
X144859697Y-99114990D01*
X144466371Y-99507630D01*
X144253243Y-100020900D01*
X144252758Y-100576661D01*
X144464990Y-101090303D01*
X144857630Y-101483629D01*
X145065512Y-101569949D01*
X144859697Y-101654990D01*
X144466371Y-102047630D01*
X144253243Y-102560900D01*
X144252758Y-103116661D01*
X144464990Y-103630303D01*
X144857630Y-104023629D01*
X145065512Y-104109949D01*
X144859697Y-104194990D01*
X144466371Y-104587630D01*
X144253243Y-105100900D01*
X144252758Y-105656661D01*
X144464990Y-106170303D01*
X144857630Y-106563629D01*
X145065512Y-106649949D01*
X144859697Y-106734990D01*
X144466371Y-107127630D01*
X144253243Y-107640900D01*
X144252758Y-108196661D01*
X144464990Y-108710303D01*
X144857630Y-109103629D01*
X145065512Y-109189949D01*
X144859697Y-109274990D01*
X144466371Y-109667630D01*
X144253243Y-110180900D01*
X144252758Y-110736661D01*
X144464990Y-111250303D01*
X144857630Y-111643629D01*
X145065512Y-111729949D01*
X144859697Y-111814990D01*
X144466371Y-112207630D01*
X144253243Y-112720900D01*
X144252758Y-113276661D01*
X144464990Y-113790303D01*
X144857630Y-114183629D01*
X145065512Y-114269949D01*
X144859697Y-114354990D01*
X144466371Y-114747630D01*
X144253243Y-115260900D01*
X144252758Y-115816661D01*
X144464990Y-116330303D01*
X144857630Y-116723629D01*
X145065512Y-116809949D01*
X144859697Y-116894990D01*
X144466371Y-117287630D01*
X144253243Y-117800900D01*
X144252758Y-118356661D01*
X144464990Y-118870303D01*
X144857630Y-119263629D01*
X145049727Y-119343395D01*
X144918857Y-119397603D01*
X144849392Y-119639787D01*
X145650000Y-120440395D01*
X146450608Y-119639787D01*
X146381143Y-119397603D01*
X146240682Y-119347491D01*
X146440303Y-119265010D01*
X146833629Y-118872370D01*
X147046757Y-118359100D01*
X147047242Y-117803339D01*
X146835010Y-117289697D01*
X146442370Y-116896371D01*
X146234488Y-116810051D01*
X146440303Y-116725010D01*
X146833629Y-116332370D01*
X147046757Y-115819100D01*
X147047242Y-115263339D01*
X146835010Y-114749697D01*
X146442370Y-114356371D01*
X146234488Y-114270051D01*
X146440303Y-114185010D01*
X146833629Y-113792370D01*
X147046757Y-113279100D01*
X147047242Y-112723339D01*
X147033857Y-112690945D01*
X150669301Y-109055501D01*
X150834048Y-108808939D01*
X150891900Y-108518100D01*
X150891900Y-78276900D01*
X150834048Y-77986061D01*
X150669301Y-77739499D01*
X150021422Y-77091620D01*
X150021462Y-77046133D01*
X149879417Y-76702357D01*
X149616627Y-76439108D01*
X149445221Y-76367934D01*
X149445362Y-76206133D01*
X149303317Y-75862357D01*
X149040527Y-75599108D01*
X148696999Y-75456462D01*
X148644900Y-75456417D01*
X148644900Y-75395516D01*
X148648043Y-75394217D01*
X148911292Y-75131427D01*
X149053938Y-74787899D01*
X149054262Y-74415933D01*
X148912217Y-74072157D01*
X148899299Y-74059217D01*
X148901192Y-74057327D01*
X149043838Y-73713799D01*
X149044162Y-73341833D01*
X148902117Y-72998057D01*
X148639327Y-72734808D01*
X148634974Y-72733001D01*
X148640743Y-72730617D01*
X148903992Y-72467827D01*
X149046638Y-72124299D01*
X149046962Y-71752333D01*
X148904917Y-71408557D01*
X148642127Y-71145308D01*
X148298599Y-71002662D01*
X147926633Y-71002338D01*
X147582857Y-71144383D01*
X147319608Y-71407173D01*
X147176962Y-71750701D01*
X147176921Y-71797577D01*
X146815354Y-72159144D01*
X146815562Y-71920133D01*
X146673517Y-71576357D01*
X146410727Y-71313108D01*
X146067199Y-71170462D01*
X145695233Y-71170138D01*
X145351457Y-71312183D01*
X145088208Y-71574973D01*
X144945562Y-71918501D01*
X144945238Y-72290467D01*
X145087283Y-72634243D01*
X145120400Y-72667418D01*
X145120400Y-78564100D01*
X145178252Y-78854939D01*
X145342999Y-79101501D01*
X147072000Y-80830502D01*
X147072000Y-90183198D01*
X147051916Y-90203282D01*
X147031362Y-89792632D01*
X146872397Y-89408857D01*
X146630213Y-89339392D01*
X145829605Y-90140000D01*
X145843748Y-90154143D01*
X145664143Y-90333748D01*
X145650000Y-90319605D01*
X144849392Y-91120213D01*
X144918857Y-91362397D01*
X145059318Y-91412509D01*
X144859697Y-91494990D01*
X144466371Y-91887630D01*
X144253243Y-92400900D01*
X144252758Y-92956661D01*
X144210000Y-92956661D01*
X144210000Y-89932302D01*
X144240856Y-89932302D01*
X144268638Y-90487368D01*
X144427603Y-90871143D01*
X144669787Y-90940608D01*
X145470395Y-90140000D01*
X144669787Y-89339392D01*
X144427603Y-89408857D01*
X144240856Y-89932302D01*
X144210000Y-89932302D01*
X144210000Y-87876661D01*
X144252758Y-87876661D01*
X144464990Y-88390303D01*
X144857630Y-88783629D01*
X145049727Y-88863395D01*
X144918857Y-88917603D01*
X144849392Y-89159787D01*
X145650000Y-89960395D01*
X146450608Y-89159787D01*
X146381143Y-88917603D01*
X146240682Y-88867491D01*
X146440303Y-88785010D01*
X146833629Y-88392370D01*
X147046757Y-87879100D01*
X147047242Y-87323339D01*
X146835010Y-86809697D01*
X146442370Y-86416371D01*
X145929100Y-86203243D01*
X145373339Y-86202758D01*
X144859697Y-86414990D01*
X144466371Y-86807630D01*
X144253243Y-87320900D01*
X144252758Y-87876661D01*
X144210000Y-87876661D01*
X144210000Y-70127000D01*
X154750000Y-70127000D01*
X154796159Y-70118315D01*
X154838553Y-70091035D01*
X154866994Y-70049410D01*
X154877000Y-70000000D01*
X154877000Y-69331447D01*
X155010583Y-69654743D01*
X155029477Y-69673670D01*
X154962362Y-69835301D01*
X154962038Y-70207267D01*
X155104083Y-70551043D01*
X155156375Y-70603427D01*
X155086808Y-70672873D01*
X154944162Y-71016401D01*
X154943838Y-71388367D01*
X155041659Y-71625113D01*
X154921162Y-71915301D01*
X154920928Y-72184196D01*
X154867957Y-72206083D01*
X154604708Y-72468873D01*
X154462062Y-72812401D01*
X154461738Y-73184367D01*
X154603783Y-73528143D01*
X154706356Y-73630895D01*
X154417657Y-73750183D01*
X154154408Y-74012973D01*
X154011762Y-74356501D01*
X154011438Y-74728467D01*
X154153483Y-75072243D01*
X154285174Y-75204164D01*
X153967357Y-75335483D01*
X153704108Y-75598273D01*
X153561462Y-75941801D01*
X153561309Y-76117599D01*
X153517057Y-76135883D01*
X153253808Y-76398673D01*
X153111162Y-76742201D01*
X153110838Y-77114167D01*
X153143389Y-77192947D01*
X153049157Y-77231883D01*
X152785908Y-77494673D01*
X152643262Y-77838201D01*
X152643221Y-77885077D01*
X152384699Y-78143599D01*
X152219952Y-78390161D01*
X152162100Y-78681000D01*
X152162100Y-117732100D01*
X152219952Y-118022939D01*
X152384699Y-118269501D01*
X156965817Y-122850619D01*
X156953243Y-122880900D01*
X156952758Y-123436661D01*
X157164990Y-123950303D01*
X157557630Y-124343629D01*
X157749727Y-124423395D01*
X157618857Y-124477603D01*
X157549392Y-124719787D01*
X158350000Y-125520395D01*
X159150608Y-124719787D01*
X159081143Y-124477603D01*
X158940682Y-124427491D01*
X159140303Y-124345010D01*
X159533629Y-123952370D01*
X159746757Y-123439100D01*
X159747242Y-122883339D01*
X159535010Y-122369697D01*
X159142370Y-121976371D01*
X158934488Y-121890051D01*
X159140303Y-121805010D01*
X159533629Y-121412370D01*
X159746757Y-120899100D01*
X159747242Y-120343339D01*
X159535010Y-119829697D01*
X159142370Y-119436371D01*
X158934488Y-119350051D01*
X159140303Y-119265010D01*
X159533629Y-118872370D01*
X159746757Y-118359100D01*
X159747242Y-117803339D01*
X159535010Y-117289697D01*
X159142370Y-116896371D01*
X158934488Y-116810051D01*
X159140303Y-116725010D01*
X159533629Y-116332370D01*
X159746757Y-115819100D01*
X159747242Y-115263339D01*
X159535010Y-114749697D01*
X159142370Y-114356371D01*
X158934488Y-114270051D01*
X159140303Y-114185010D01*
X159533629Y-113792370D01*
X159746757Y-113279100D01*
X159747242Y-112723339D01*
X159535010Y-112209697D01*
X159142370Y-111816371D01*
X158934488Y-111730051D01*
X159140303Y-111645010D01*
X159533629Y-111252370D01*
X159746757Y-110739100D01*
X159747242Y-110183339D01*
X159535010Y-109669697D01*
X159142370Y-109276371D01*
X158934488Y-109190051D01*
X159140303Y-109105010D01*
X159533629Y-108712370D01*
X159746757Y-108199100D01*
X159747242Y-107643339D01*
X159535010Y-107129697D01*
X159142370Y-106736371D01*
X158934488Y-106650051D01*
X159140303Y-106565010D01*
X159533629Y-106172370D01*
X159746757Y-105659100D01*
X159747242Y-105103339D01*
X159535010Y-104589697D01*
X159142370Y-104196371D01*
X158934488Y-104110051D01*
X159140303Y-104025010D01*
X159533629Y-103632370D01*
X159746757Y-103119100D01*
X159747242Y-102563339D01*
X159535010Y-102049697D01*
X159142370Y-101656371D01*
X158934488Y-101570051D01*
X159140303Y-101485010D01*
X159533629Y-101092370D01*
X159746757Y-100579100D01*
X159747242Y-100023339D01*
X159535010Y-99509697D01*
X159142370Y-99116371D01*
X158934488Y-99030051D01*
X159140303Y-98945010D01*
X159533629Y-98552370D01*
X159746757Y-98039100D01*
X159747242Y-97483339D01*
X159535010Y-96969697D01*
X159142370Y-96576371D01*
X158934488Y-96490051D01*
X159140303Y-96405010D01*
X159533629Y-96012370D01*
X159746757Y-95499100D01*
X159747242Y-94943339D01*
X159535010Y-94429697D01*
X159142370Y-94036371D01*
X158934488Y-93950051D01*
X159140303Y-93865010D01*
X159533629Y-93472370D01*
X159746757Y-92959100D01*
X159747242Y-92403339D01*
X159535010Y-91889697D01*
X159142370Y-91496371D01*
X158934488Y-91410051D01*
X159140303Y-91325010D01*
X159533629Y-90932370D01*
X159746757Y-90419100D01*
X159747242Y-89863339D01*
X159535010Y-89349697D01*
X159142370Y-88956371D01*
X158950273Y-88876605D01*
X159081143Y-88822397D01*
X159150608Y-88580213D01*
X158350000Y-87779605D01*
X158335858Y-87793748D01*
X158156253Y-87614143D01*
X158170395Y-87600000D01*
X158529605Y-87600000D01*
X159330213Y-88400608D01*
X159572397Y-88331143D01*
X159759144Y-87807698D01*
X159731362Y-87252632D01*
X159572397Y-86868857D01*
X159330213Y-86799392D01*
X158529605Y-87600000D01*
X158170395Y-87600000D01*
X158156253Y-87585858D01*
X158335858Y-87406253D01*
X158350000Y-87420395D01*
X159150608Y-86619787D01*
X159081143Y-86377603D01*
X158557698Y-86190856D01*
X158002632Y-86218638D01*
X157734900Y-86329536D01*
X157734900Y-83855002D01*
X158647601Y-82942301D01*
X158812348Y-82695739D01*
X158870200Y-82404900D01*
X158870200Y-70410263D01*
X158902392Y-70378127D01*
X159045038Y-70034599D01*
X159045362Y-69662633D01*
X158903317Y-69318857D01*
X158640527Y-69055608D01*
X158296999Y-68912962D01*
X157925033Y-68912638D01*
X157581257Y-69054683D01*
X157318008Y-69317473D01*
X157270760Y-69431258D01*
X156709800Y-68870298D01*
X156596817Y-68596857D01*
X156334027Y-68333608D01*
X155990499Y-68190962D01*
X155618533Y-68190638D01*
X155274757Y-68332683D01*
X155011508Y-68595473D01*
X154877000Y-68919403D01*
X154877000Y-68552606D01*
X155589803Y-67839803D01*
X155616994Y-67799410D01*
X155627000Y-67750000D01*
X155627000Y-67552606D01*
X155802606Y-67377000D01*
X156000000Y-67377000D01*
X156046159Y-67368315D01*
X156088553Y-67341035D01*
X156116994Y-67299410D01*
X156127000Y-67250000D01*
X156127000Y-66210000D01*
X159790000Y-66210000D01*
X159790000Y-137290000D01*
M02*
