M48
;DRILL file {KiCad 4.0.4-stable} date 
;FORMAT={3:3/ absolute / metric / suppress trailing zeros}
FMAT,2
METRIC,LZ
T1C0.400
T2C0.762
%
G90
G05
M71
T1
X14588Y-072105
X147207Y-081443
X148109Y-073527
X148112Y-071938
X148119Y-074601
X14851Y-076391
X149086Y-077231
X153578Y-078025
X154046Y-076929
X154496Y-076129
X154947Y-074543
X155397Y-072999
X155804Y-069126
X155856Y-072102
X155879Y-071203
X155897Y-070022
X1576Y-083799
X15811Y-069848
T2
X14565Y-0876
X14565Y-09014
X14565Y-09268
X14565Y-09522
X14565Y-09776
X14565Y-1003
X14565Y-10284
X14565Y-10538
X14565Y-10792
X14565Y-11046
X14565Y-113
X14565Y-11554
X14565Y-11808
X14565Y-12062
X14565Y-12316
X14565Y-1257
X14565Y-12824
X14565Y-13078
X14565Y-13332
X14565Y-13586
X15835Y-0876
X15835Y-09014
X15835Y-09268
X15835Y-09522
X15835Y-09776
X15835Y-1003
X15835Y-10284
X15835Y-10538
X15835Y-10792
X15835Y-11046
X15835Y-113
X15835Y-11554
X15835Y-11808
X15835Y-12062
X15835Y-12316
X15835Y-1257
X15835Y-12824
X15835Y-13078
X15835Y-13332
X15835Y-13586
T0
M30
