G04 #@! TF.FileFunction,Legend,Bot*
%FSLAX46Y46*%
G04 Gerber Fmt 4.6, Leading zero omitted, Abs format (unit mm)*
G04 Created by KiCad (PCBNEW 4.0.4-stable) date *
%MOMM*%
%LPD*%
G01*
G04 APERTURE LIST*
%ADD10C,0.100000*%
%ADD11C,1.924000*%
G04 APERTURE END LIST*
D10*
%LPC*%
D11*
X158350000Y-90140000D03*
X158350000Y-92680000D03*
X158350000Y-95220000D03*
X158350000Y-97760000D03*
X158350000Y-100300000D03*
X158350000Y-102840000D03*
X158350000Y-105380000D03*
X158350000Y-107920000D03*
X158350000Y-110460000D03*
X158350000Y-113000000D03*
X158350000Y-115540000D03*
X158350000Y-118080000D03*
X158350000Y-120620000D03*
X158350000Y-123160000D03*
X158350000Y-125700000D03*
X158350000Y-128240000D03*
X158350000Y-130780000D03*
X158350000Y-133320000D03*
X158350000Y-135860000D03*
X145650000Y-135860000D03*
X145650000Y-133320000D03*
X145650000Y-130780000D03*
X145650000Y-128240000D03*
X145650000Y-125700000D03*
X145650000Y-123160000D03*
X145650000Y-120620000D03*
X145650000Y-118080000D03*
X145650000Y-115540000D03*
X145650000Y-113000000D03*
X145650000Y-110460000D03*
X145650000Y-107920000D03*
X145650000Y-105380000D03*
X145650000Y-102840000D03*
X145650000Y-100300000D03*
X145650000Y-97760000D03*
X145650000Y-95220000D03*
X145650000Y-92680000D03*
X145650000Y-90140000D03*
X158350000Y-87600000D03*
X145650000Y-87600000D03*
M02*
