G04 #@! TF.FileFunction,Copper,L1,Top,Signal*
%FSLAX46Y46*%
G04 Gerber Fmt 4.6, Leading zero omitted, Abs format (unit mm)*
G04 Created by KiCad (PCBNEW 4.0.4-stable) date *
%MOMM*%
%LPD*%
G01*
G04 APERTURE LIST*
%ADD10C,0.100000*%
%ADD11R,1.200000X0.500000*%
%ADD12R,0.500000X1.200000*%
%ADD13C,1.524000*%
%ADD14C,0.600000*%
%ADD15C,0.250000*%
%ADD16C,0.254000*%
G04 APERTURE END LIST*
D10*
D11*
X147000000Y-70500000D03*
X147000000Y-71250000D03*
X147000000Y-72000000D03*
X147000000Y-72750000D03*
X147000000Y-73500000D03*
X147000000Y-74250000D03*
X147000000Y-75000000D03*
X147000000Y-75750000D03*
X147000000Y-76500000D03*
X147000000Y-77250000D03*
X147000000Y-78000000D03*
X147000000Y-78750000D03*
D12*
X148250000Y-79300000D03*
X149000000Y-79300000D03*
X149750000Y-79300000D03*
X150500000Y-79300000D03*
X151250000Y-79300000D03*
X152000000Y-79300000D03*
X152750000Y-79300000D03*
X153500000Y-79300000D03*
X154250000Y-79300000D03*
X155000000Y-79300000D03*
X155750000Y-79300000D03*
D11*
X157000000Y-78750000D03*
X157000000Y-78000000D03*
X157000000Y-77250000D03*
X157000000Y-76500000D03*
X157000000Y-75750000D03*
X157000000Y-75000000D03*
X157000000Y-74250000D03*
X157000000Y-73500000D03*
X157000000Y-72750000D03*
X157000000Y-72000000D03*
X157000000Y-71250000D03*
X157000000Y-70500000D03*
X157000000Y-69750000D03*
X157000000Y-69000000D03*
X157000000Y-68250000D03*
X157000000Y-67500000D03*
D13*
X158350000Y-90140000D03*
X158350000Y-92680000D03*
X158350000Y-95220000D03*
X158350000Y-97760000D03*
X158350000Y-100300000D03*
X158350000Y-102840000D03*
X158350000Y-105380000D03*
X158350000Y-107920000D03*
X158350000Y-110460000D03*
X158350000Y-113000000D03*
X158350000Y-115540000D03*
X158350000Y-118080000D03*
X158350000Y-120620000D03*
X158350000Y-123160000D03*
X158350000Y-125700000D03*
X158350000Y-128240000D03*
X158350000Y-130780000D03*
X158350000Y-133320000D03*
X158350000Y-135860000D03*
X145650000Y-135860000D03*
X145650000Y-133320000D03*
X145650000Y-130780000D03*
X145650000Y-128240000D03*
X145650000Y-125700000D03*
X145650000Y-123160000D03*
X145650000Y-120620000D03*
X145650000Y-118080000D03*
X145650000Y-115540000D03*
X145650000Y-113000000D03*
X145650000Y-110460000D03*
X145650000Y-107920000D03*
X145650000Y-105380000D03*
X145650000Y-102840000D03*
X145650000Y-100300000D03*
X145650000Y-97760000D03*
X145650000Y-95220000D03*
X145650000Y-92680000D03*
X145650000Y-90140000D03*
X158350000Y-87600000D03*
X145650000Y-87600000D03*
D14*
X145880400Y-72105300D03*
X148111800Y-71937500D03*
X148109000Y-73527000D03*
X148119100Y-74601100D03*
X148510200Y-76391300D03*
X149086300Y-77231300D03*
X153578100Y-78025000D03*
X154046000Y-76929000D03*
X154496300Y-76128600D03*
X154946600Y-74543300D03*
X155396900Y-72999200D03*
X155856000Y-72102100D03*
X155879000Y-71203200D03*
X155897200Y-70022100D03*
X155803700Y-69125800D03*
X158110200Y-69847800D03*
X147206700Y-81443000D03*
X157600200Y-83799200D03*
D15*
X147000000Y-71250000D02*
X146074700Y-71250000D01*
X145880400Y-71444300D02*
X145880400Y-72105300D01*
X146074700Y-71250000D02*
X145880400Y-71444300D01*
X147987800Y-71937500D02*
X147925300Y-72000000D01*
X148111800Y-71937500D02*
X147987800Y-71937500D01*
X147000000Y-72000000D02*
X147925300Y-72000000D01*
X147000000Y-72750000D02*
X146074700Y-72750000D01*
X146781700Y-96628300D02*
X145650000Y-97760000D01*
X146781700Y-86512600D02*
X146781700Y-96628300D01*
X144723800Y-84454700D02*
X146781700Y-86512600D01*
X144723800Y-74100900D02*
X144723800Y-84454700D01*
X146074700Y-72750000D02*
X144723800Y-74100900D01*
X148082000Y-73500000D02*
X148109000Y-73527000D01*
X147000000Y-73500000D02*
X148082000Y-73500000D01*
X147000000Y-74250000D02*
X147925300Y-74250000D01*
X147925300Y-74407300D02*
X148119100Y-74601100D01*
X147925300Y-74250000D02*
X147925300Y-74407300D01*
X147000000Y-75000000D02*
X146074700Y-75000000D01*
X147232100Y-103797900D02*
X145650000Y-105380000D01*
X147232100Y-84575000D02*
X147232100Y-103797900D01*
X145174100Y-82517000D02*
X147232100Y-84575000D01*
X145174100Y-75900600D02*
X145174100Y-82517000D01*
X146074700Y-75000000D02*
X145174100Y-75900600D01*
X147000000Y-75750000D02*
X147925300Y-75750000D01*
X147925300Y-75806400D02*
X147925300Y-75750000D01*
X148510200Y-76391300D02*
X147925300Y-75806400D01*
X145624400Y-76950300D02*
X146074700Y-76500000D01*
X145624400Y-82105300D02*
X145624400Y-76950300D01*
X147686600Y-84167500D02*
X145624400Y-82105300D01*
X147686600Y-108423400D02*
X147686600Y-84167500D01*
X145650000Y-110460000D02*
X147686600Y-108423400D01*
X147000000Y-76500000D02*
X146074700Y-76500000D01*
X147944000Y-77231300D02*
X147925300Y-77250000D01*
X149086300Y-77231300D02*
X147944000Y-77231300D01*
X147000000Y-77250000D02*
X147925300Y-77250000D01*
X147000000Y-78000000D02*
X146074700Y-78000000D01*
X146074700Y-81918700D02*
X146074700Y-78000000D01*
X148136900Y-83980900D02*
X146074700Y-81918700D01*
X148136900Y-113053100D02*
X148136900Y-83980900D01*
X145650000Y-115540000D02*
X148136900Y-113053100D01*
X146564400Y-79185600D02*
X147000000Y-78750000D01*
X146564400Y-81722000D02*
X146564400Y-79185600D01*
X148587200Y-83744800D02*
X146564400Y-81722000D01*
X148587200Y-115142800D02*
X148587200Y-83744800D01*
X145650000Y-118080000D02*
X148587200Y-115142800D01*
X149000000Y-79300000D02*
X149000000Y-80225300D01*
X149000000Y-82296400D02*
X149000000Y-80225300D01*
X149487800Y-82784200D02*
X149000000Y-82296400D01*
X149487800Y-119322200D02*
X149487800Y-82784200D01*
X145650000Y-123160000D02*
X149487800Y-119322200D01*
X149938100Y-121411900D02*
X145650000Y-125700000D01*
X149938100Y-82597600D02*
X149938100Y-121411900D01*
X149750000Y-82409500D02*
X149938100Y-82597600D01*
X149750000Y-79300000D02*
X149750000Y-82409500D01*
X150500000Y-123390000D02*
X150500000Y-79300000D01*
X145650000Y-128240000D02*
X150500000Y-123390000D01*
X151250000Y-125180000D02*
X151250000Y-79300000D01*
X145650000Y-130780000D02*
X151250000Y-125180000D01*
X152000000Y-126970000D02*
X145650000Y-133320000D01*
X152000000Y-80225300D02*
X152000000Y-126970000D01*
X152000000Y-79300000D02*
X152000000Y-80225300D01*
X152750000Y-79300000D02*
X152750000Y-80225300D01*
X152750000Y-128760000D02*
X145650000Y-135860000D01*
X152750000Y-80225300D02*
X152750000Y-128760000D01*
X153500000Y-131010000D02*
X153500000Y-80225300D01*
X158350000Y-135860000D02*
X153500000Y-131010000D01*
X153500000Y-79300000D02*
X153500000Y-80225300D01*
X154250000Y-79300000D02*
X154250000Y-80225300D01*
X154085700Y-129055700D02*
X158350000Y-133320000D01*
X154085700Y-80389600D02*
X154085700Y-129055700D01*
X154250000Y-80225300D02*
X154085700Y-80389600D01*
X155000000Y-79300000D02*
X155000000Y-80225300D01*
X154536000Y-126966000D02*
X158350000Y-130780000D01*
X154536000Y-80689300D02*
X154536000Y-126966000D01*
X155000000Y-80225300D02*
X154536000Y-80689300D01*
X155750000Y-79300000D02*
X155750000Y-80225300D01*
X154986300Y-124876300D02*
X158350000Y-128240000D01*
X154986300Y-80989000D02*
X154986300Y-124876300D01*
X155750000Y-80225300D02*
X154986300Y-80989000D01*
X157000000Y-78000000D02*
X156074700Y-78000000D01*
X156049700Y-78025000D02*
X156074700Y-78000000D01*
X153578100Y-78025000D02*
X156049700Y-78025000D01*
X158254600Y-77579300D02*
X157925300Y-77250000D01*
X158254600Y-84030000D02*
X158254600Y-77579300D01*
X155886900Y-86397700D02*
X158254600Y-84030000D01*
X155886900Y-118156900D02*
X155886900Y-86397700D01*
X158350000Y-120620000D02*
X155886900Y-118156900D01*
X157000000Y-77250000D02*
X157925300Y-77250000D01*
X157000000Y-76500000D02*
X156074700Y-76500000D01*
X155645700Y-76929000D02*
X154046000Y-76929000D01*
X156074700Y-76500000D02*
X155645700Y-76929000D01*
X158715700Y-76540400D02*
X157925300Y-75750000D01*
X158715700Y-84247100D02*
X158715700Y-76540400D01*
X156337200Y-86625600D02*
X158715700Y-84247100D01*
X156337200Y-113527200D02*
X156337200Y-86625600D01*
X158350000Y-115540000D02*
X156337200Y-113527200D01*
X157000000Y-75750000D02*
X157925300Y-75750000D01*
X157000000Y-75000000D02*
X156074700Y-75000000D01*
X154946100Y-76128600D02*
X154496300Y-76128600D01*
X156074700Y-75000000D02*
X154946100Y-76128600D01*
X155239900Y-74250000D02*
X154946600Y-74543300D01*
X157000000Y-74250000D02*
X155239900Y-74250000D01*
X157000000Y-73500000D02*
X157925300Y-73500000D01*
X159166000Y-74740700D02*
X157925300Y-73500000D01*
X159166000Y-84592500D02*
X159166000Y-74740700D01*
X156791000Y-86967500D02*
X159166000Y-84592500D01*
X156791000Y-106361000D02*
X156791000Y-86967500D01*
X158350000Y-107920000D02*
X156791000Y-106361000D01*
X157000000Y-72750000D02*
X156074700Y-72750000D01*
X155396900Y-72999100D02*
X155396900Y-72999200D01*
X155825600Y-72999100D02*
X155396900Y-72999100D01*
X156074700Y-72750000D02*
X155825600Y-72999100D01*
X157000000Y-72000000D02*
X156074700Y-72000000D01*
X155972600Y-72102100D02*
X156074700Y-72000000D01*
X155856000Y-72102100D02*
X155972600Y-72102100D01*
X157000000Y-71250000D02*
X156074700Y-71250000D01*
X156027900Y-71203200D02*
X156074700Y-71250000D01*
X155879000Y-71203200D02*
X156027900Y-71203200D01*
X157000000Y-70500000D02*
X157925300Y-70500000D01*
X159616300Y-72191000D02*
X157925300Y-70500000D01*
X159616300Y-84779100D02*
X159616300Y-72191000D01*
X157257100Y-87138300D02*
X159616300Y-84779100D01*
X157257100Y-96667100D02*
X157257100Y-87138300D01*
X158350000Y-97760000D02*
X157257100Y-96667100D01*
X157000000Y-69750000D02*
X156074700Y-69750000D01*
X155897200Y-69927500D02*
X155897200Y-70022100D01*
X156074700Y-69750000D02*
X155897200Y-69927500D01*
X157000000Y-69000000D02*
X156074700Y-69000000D01*
X155803700Y-69125700D02*
X155803700Y-69125800D01*
X155949000Y-69125700D02*
X155803700Y-69125700D01*
X156074700Y-69000000D02*
X155949000Y-69125700D01*
X157000000Y-68250000D02*
X157925300Y-68250000D01*
X157925300Y-69662900D02*
X158110200Y-69847800D01*
X157925300Y-68250000D02*
X157925300Y-69662900D01*
X157000000Y-67500000D02*
X156000000Y-67500000D01*
X154750000Y-70500000D02*
X149743600Y-70500000D01*
X155000000Y-70250000D02*
X154750000Y-70500000D01*
X155000000Y-68750000D02*
X155000000Y-70250000D01*
X155750000Y-68000000D02*
X155000000Y-68750000D01*
X155750000Y-67750000D02*
X155750000Y-68000000D01*
X156000000Y-67500000D02*
X155750000Y-67750000D01*
X148250000Y-79300000D02*
X148250000Y-78374700D01*
X147000000Y-70500000D02*
X147925300Y-70500000D01*
X148842400Y-78374700D02*
X148250000Y-78374700D01*
X149743600Y-77473500D02*
X148842400Y-78374700D01*
X149743600Y-70500000D02*
X149743600Y-77473500D01*
X149743600Y-70500000D02*
X147925300Y-70500000D01*
X148250000Y-79300000D02*
X148250000Y-80009400D01*
X148198600Y-81443000D02*
X147206700Y-81443000D01*
X148198600Y-80060800D02*
X148198600Y-81443000D01*
X148250000Y-80009400D02*
X148198600Y-80060800D01*
X148198600Y-82131900D02*
X148198600Y-81443000D01*
X149037500Y-82970800D02*
X148198600Y-82131900D01*
X149037500Y-117232500D02*
X149037500Y-82970800D01*
X145650000Y-120620000D02*
X149037500Y-117232500D01*
X157600200Y-83799200D02*
X157210800Y-83799200D01*
X155436600Y-85573400D02*
X157210800Y-83799200D01*
X155436600Y-122786600D02*
X155436600Y-85573400D01*
X158350000Y-125700000D02*
X155436600Y-122786600D01*
X157210800Y-78960800D02*
X157000000Y-78750000D01*
X157210800Y-83799200D02*
X157210800Y-78960800D01*
D16*
G36*
X145397077Y-86202779D02*
X145373339Y-86202758D01*
X144859697Y-86414990D01*
X144466371Y-86807630D01*
X144253243Y-87320900D01*
X144252758Y-87876661D01*
X144464990Y-88390303D01*
X144857630Y-88783629D01*
X145049727Y-88863395D01*
X144918857Y-88917603D01*
X144849392Y-89159787D01*
X145650000Y-89960395D01*
X145664143Y-89946253D01*
X145843748Y-90125858D01*
X145829605Y-90140000D01*
X145843748Y-90154143D01*
X145664143Y-90333748D01*
X145650000Y-90319605D01*
X144849392Y-91120213D01*
X144918857Y-91362397D01*
X145059318Y-91412509D01*
X144859697Y-91494990D01*
X144466371Y-91887630D01*
X144253243Y-92400900D01*
X144252758Y-92956661D01*
X144464990Y-93470303D01*
X144857630Y-93863629D01*
X145065512Y-93949949D01*
X144859697Y-94034990D01*
X144466371Y-94427630D01*
X144253243Y-94940900D01*
X144252758Y-95496661D01*
X144464990Y-96010303D01*
X144857630Y-96403629D01*
X145065512Y-96489949D01*
X144859697Y-96574990D01*
X144466371Y-96967630D01*
X144253243Y-97480900D01*
X144252758Y-98036661D01*
X144464990Y-98550303D01*
X144857630Y-98943629D01*
X145065512Y-99029949D01*
X144859697Y-99114990D01*
X144466371Y-99507630D01*
X144253243Y-100020900D01*
X144252758Y-100576661D01*
X144464990Y-101090303D01*
X144857630Y-101483629D01*
X145065512Y-101569949D01*
X144859697Y-101654990D01*
X144466371Y-102047630D01*
X144253243Y-102560900D01*
X144252758Y-103116661D01*
X144464990Y-103630303D01*
X144857630Y-104023629D01*
X145065512Y-104109949D01*
X144859697Y-104194990D01*
X144466371Y-104587630D01*
X144253243Y-105100900D01*
X144252758Y-105656661D01*
X144464990Y-106170303D01*
X144857630Y-106563629D01*
X145065512Y-106649949D01*
X144859697Y-106734990D01*
X144466371Y-107127630D01*
X144253243Y-107640900D01*
X144252758Y-108196661D01*
X144464990Y-108710303D01*
X144857630Y-109103629D01*
X145065512Y-109189949D01*
X144859697Y-109274990D01*
X144466371Y-109667630D01*
X144253243Y-110180900D01*
X144252758Y-110736661D01*
X144464990Y-111250303D01*
X144857630Y-111643629D01*
X145065512Y-111729949D01*
X144859697Y-111814990D01*
X144466371Y-112207630D01*
X144253243Y-112720900D01*
X144252758Y-113276661D01*
X144464990Y-113790303D01*
X144857630Y-114183629D01*
X145065512Y-114269949D01*
X144859697Y-114354990D01*
X144466371Y-114747630D01*
X144253243Y-115260900D01*
X144252758Y-115816661D01*
X144464990Y-116330303D01*
X144857630Y-116723629D01*
X145065512Y-116809949D01*
X144859697Y-116894990D01*
X144466371Y-117287630D01*
X144253243Y-117800900D01*
X144252758Y-118356661D01*
X144464990Y-118870303D01*
X144857630Y-119263629D01*
X145049727Y-119343395D01*
X144918857Y-119397603D01*
X144849392Y-119639787D01*
X145650000Y-120440395D01*
X146450608Y-119639787D01*
X146381143Y-119397603D01*
X146240682Y-119347491D01*
X146440303Y-119265010D01*
X146833629Y-118872370D01*
X147046757Y-118359100D01*
X147047242Y-117803339D01*
X147033857Y-117770945D01*
X148727800Y-116077002D01*
X148727800Y-119007398D01*
X147051916Y-120683282D01*
X147031362Y-120272632D01*
X146872397Y-119888857D01*
X146630213Y-119819392D01*
X145829605Y-120620000D01*
X145843748Y-120634143D01*
X145664143Y-120813748D01*
X145650000Y-120799605D01*
X144849392Y-121600213D01*
X144918857Y-121842397D01*
X145059318Y-121892509D01*
X144859697Y-121974990D01*
X144466371Y-122367630D01*
X144253243Y-122880900D01*
X144252758Y-123436661D01*
X144464990Y-123950303D01*
X144857630Y-124343629D01*
X145065512Y-124429949D01*
X144859697Y-124514990D01*
X144466371Y-124907630D01*
X144253243Y-125420900D01*
X144252758Y-125976661D01*
X144464990Y-126490303D01*
X144857630Y-126883629D01*
X145065512Y-126969949D01*
X144859697Y-127054990D01*
X144466371Y-127447630D01*
X144253243Y-127960900D01*
X144252758Y-128516661D01*
X144464990Y-129030303D01*
X144857630Y-129423629D01*
X145065512Y-129509949D01*
X144859697Y-129594990D01*
X144466371Y-129987630D01*
X144253243Y-130500900D01*
X144252758Y-131056661D01*
X144464990Y-131570303D01*
X144857630Y-131963629D01*
X145065512Y-132049949D01*
X144859697Y-132134990D01*
X144466371Y-132527630D01*
X144253243Y-133040900D01*
X144252758Y-133596661D01*
X144464990Y-134110303D01*
X144857630Y-134503629D01*
X145065512Y-134589949D01*
X144859697Y-134674990D01*
X144466371Y-135067630D01*
X144253243Y-135580900D01*
X144252758Y-136136661D01*
X144464990Y-136650303D01*
X144857630Y-137043629D01*
X145370900Y-137256757D01*
X145926661Y-137257242D01*
X146440303Y-137045010D01*
X146833629Y-136652370D01*
X147046757Y-136139100D01*
X147047242Y-135583339D01*
X147033857Y-135550945D01*
X152740000Y-129844802D01*
X152740000Y-131010000D01*
X152797852Y-131300839D01*
X152962599Y-131547401D01*
X156965817Y-135550619D01*
X156953243Y-135580900D01*
X156952758Y-136136661D01*
X157164990Y-136650303D01*
X157557630Y-137043629D01*
X158070900Y-137256757D01*
X158626661Y-137257242D01*
X159140303Y-137045010D01*
X159533629Y-136652370D01*
X159746757Y-136139100D01*
X159747242Y-135583339D01*
X159535010Y-135069697D01*
X159142370Y-134676371D01*
X158934488Y-134590051D01*
X159140303Y-134505010D01*
X159533629Y-134112370D01*
X159746757Y-133599100D01*
X159747242Y-133043339D01*
X159535010Y-132529697D01*
X159142370Y-132136371D01*
X158934488Y-132050051D01*
X159140303Y-131965010D01*
X159533629Y-131572370D01*
X159746757Y-131059100D01*
X159747242Y-130503339D01*
X159535010Y-129989697D01*
X159142370Y-129596371D01*
X158934488Y-129510051D01*
X159140303Y-129425010D01*
X159533629Y-129032370D01*
X159746757Y-128519100D01*
X159747242Y-127963339D01*
X159535010Y-127449697D01*
X159142370Y-127056371D01*
X158950273Y-126976605D01*
X159081143Y-126922397D01*
X159150608Y-126680213D01*
X158350000Y-125879605D01*
X158335858Y-125893748D01*
X158156253Y-125714143D01*
X158170395Y-125700000D01*
X158529605Y-125700000D01*
X159330213Y-126500608D01*
X159572397Y-126431143D01*
X159759144Y-125907698D01*
X159731362Y-125352632D01*
X159572397Y-124968857D01*
X159330213Y-124899392D01*
X158529605Y-125700000D01*
X158170395Y-125700000D01*
X157369787Y-124899392D01*
X157127603Y-124968857D01*
X156940856Y-125492302D01*
X156954753Y-125769951D01*
X155746300Y-124561498D01*
X155746300Y-119091102D01*
X156965817Y-120310619D01*
X156953243Y-120340900D01*
X156952758Y-120896661D01*
X157164990Y-121410303D01*
X157557630Y-121803629D01*
X157765512Y-121889949D01*
X157559697Y-121974990D01*
X157166371Y-122367630D01*
X156953243Y-122880900D01*
X156952758Y-123436661D01*
X157164990Y-123950303D01*
X157557630Y-124343629D01*
X157749727Y-124423395D01*
X157618857Y-124477603D01*
X157549392Y-124719787D01*
X158350000Y-125520395D01*
X159150608Y-124719787D01*
X159081143Y-124477603D01*
X158940682Y-124427491D01*
X159140303Y-124345010D01*
X159533629Y-123952370D01*
X159746757Y-123439100D01*
X159747242Y-122883339D01*
X159535010Y-122369697D01*
X159142370Y-121976371D01*
X158934488Y-121890051D01*
X159140303Y-121805010D01*
X159533629Y-121412370D01*
X159746757Y-120899100D01*
X159747242Y-120343339D01*
X159535010Y-119829697D01*
X159142370Y-119436371D01*
X158934488Y-119350051D01*
X159140303Y-119265010D01*
X159533629Y-118872370D01*
X159746757Y-118359100D01*
X159747242Y-117803339D01*
X159535010Y-117289697D01*
X159142370Y-116896371D01*
X158934488Y-116810051D01*
X159140303Y-116725010D01*
X159533629Y-116332370D01*
X159746757Y-115819100D01*
X159747242Y-115263339D01*
X159535010Y-114749697D01*
X159142370Y-114356371D01*
X158934488Y-114270051D01*
X159140303Y-114185010D01*
X159533629Y-113792370D01*
X159746757Y-113279100D01*
X159747242Y-112723339D01*
X159535010Y-112209697D01*
X159142370Y-111816371D01*
X158934488Y-111730051D01*
X159140303Y-111645010D01*
X159533629Y-111252370D01*
X159746757Y-110739100D01*
X159747242Y-110183339D01*
X159535010Y-109669697D01*
X159142370Y-109276371D01*
X158934488Y-109190051D01*
X159140303Y-109105010D01*
X159533629Y-108712370D01*
X159746757Y-108199100D01*
X159747242Y-107643339D01*
X159535010Y-107129697D01*
X159142370Y-106736371D01*
X158934488Y-106650051D01*
X159140303Y-106565010D01*
X159533629Y-106172370D01*
X159746757Y-105659100D01*
X159747242Y-105103339D01*
X159535010Y-104589697D01*
X159142370Y-104196371D01*
X158934488Y-104110051D01*
X159140303Y-104025010D01*
X159533629Y-103632370D01*
X159746757Y-103119100D01*
X159747242Y-102563339D01*
X159535010Y-102049697D01*
X159142370Y-101656371D01*
X158934488Y-101570051D01*
X159140303Y-101485010D01*
X159533629Y-101092370D01*
X159746757Y-100579100D01*
X159747242Y-100023339D01*
X159535010Y-99509697D01*
X159142370Y-99116371D01*
X158934488Y-99030051D01*
X159140303Y-98945010D01*
X159533629Y-98552370D01*
X159746757Y-98039100D01*
X159747242Y-97483339D01*
X159535010Y-96969697D01*
X159142370Y-96576371D01*
X158934488Y-96490051D01*
X159140303Y-96405010D01*
X159533629Y-96012370D01*
X159746757Y-95499100D01*
X159747242Y-94943339D01*
X159535010Y-94429697D01*
X159142370Y-94036371D01*
X158934488Y-93950051D01*
X159140303Y-93865010D01*
X159533629Y-93472370D01*
X159746757Y-92959100D01*
X159747242Y-92403339D01*
X159535010Y-91889697D01*
X159142370Y-91496371D01*
X158934488Y-91410051D01*
X159140303Y-91325010D01*
X159533629Y-90932370D01*
X159746757Y-90419100D01*
X159747242Y-89863339D01*
X159535010Y-89349697D01*
X159142370Y-88956371D01*
X158950273Y-88876605D01*
X159081143Y-88822397D01*
X159150608Y-88580213D01*
X158350000Y-87779605D01*
X158335858Y-87793748D01*
X158156253Y-87614143D01*
X158170395Y-87600000D01*
X158529605Y-87600000D01*
X159330213Y-88400608D01*
X159572397Y-88331143D01*
X159759144Y-87807698D01*
X159731362Y-87252632D01*
X159572397Y-86868857D01*
X159330213Y-86799392D01*
X158529605Y-87600000D01*
X158170395Y-87600000D01*
X158156253Y-87585858D01*
X158335858Y-87406253D01*
X158350000Y-87420395D01*
X159150608Y-86619787D01*
X159083696Y-86386506D01*
X159790000Y-85680202D01*
X159790000Y-137290000D01*
X144210000Y-137290000D01*
X144210000Y-120412302D01*
X144240856Y-120412302D01*
X144268638Y-120967368D01*
X144427603Y-121351143D01*
X144669787Y-121420608D01*
X145470395Y-120620000D01*
X144669787Y-119819392D01*
X144427603Y-119888857D01*
X144240856Y-120412302D01*
X144210000Y-120412302D01*
X144210000Y-89932302D01*
X144240856Y-89932302D01*
X144268638Y-90487368D01*
X144427603Y-90871143D01*
X144669787Y-90940608D01*
X145470395Y-90140000D01*
X144669787Y-89339392D01*
X144427603Y-89408857D01*
X144240856Y-89932302D01*
X144210000Y-89932302D01*
X144210000Y-85015702D01*
X145397077Y-86202779D01*
X145397077Y-86202779D01*
G37*
X145397077Y-86202779D02*
X145373339Y-86202758D01*
X144859697Y-86414990D01*
X144466371Y-86807630D01*
X144253243Y-87320900D01*
X144252758Y-87876661D01*
X144464990Y-88390303D01*
X144857630Y-88783629D01*
X145049727Y-88863395D01*
X144918857Y-88917603D01*
X144849392Y-89159787D01*
X145650000Y-89960395D01*
X145664143Y-89946253D01*
X145843748Y-90125858D01*
X145829605Y-90140000D01*
X145843748Y-90154143D01*
X145664143Y-90333748D01*
X145650000Y-90319605D01*
X144849392Y-91120213D01*
X144918857Y-91362397D01*
X145059318Y-91412509D01*
X144859697Y-91494990D01*
X144466371Y-91887630D01*
X144253243Y-92400900D01*
X144252758Y-92956661D01*
X144464990Y-93470303D01*
X144857630Y-93863629D01*
X145065512Y-93949949D01*
X144859697Y-94034990D01*
X144466371Y-94427630D01*
X144253243Y-94940900D01*
X144252758Y-95496661D01*
X144464990Y-96010303D01*
X144857630Y-96403629D01*
X145065512Y-96489949D01*
X144859697Y-96574990D01*
X144466371Y-96967630D01*
X144253243Y-97480900D01*
X144252758Y-98036661D01*
X144464990Y-98550303D01*
X144857630Y-98943629D01*
X145065512Y-99029949D01*
X144859697Y-99114990D01*
X144466371Y-99507630D01*
X144253243Y-100020900D01*
X144252758Y-100576661D01*
X144464990Y-101090303D01*
X144857630Y-101483629D01*
X145065512Y-101569949D01*
X144859697Y-101654990D01*
X144466371Y-102047630D01*
X144253243Y-102560900D01*
X144252758Y-103116661D01*
X144464990Y-103630303D01*
X144857630Y-104023629D01*
X145065512Y-104109949D01*
X144859697Y-104194990D01*
X144466371Y-104587630D01*
X144253243Y-105100900D01*
X144252758Y-105656661D01*
X144464990Y-106170303D01*
X144857630Y-106563629D01*
X145065512Y-106649949D01*
X144859697Y-106734990D01*
X144466371Y-107127630D01*
X144253243Y-107640900D01*
X144252758Y-108196661D01*
X144464990Y-108710303D01*
X144857630Y-109103629D01*
X145065512Y-109189949D01*
X144859697Y-109274990D01*
X144466371Y-109667630D01*
X144253243Y-110180900D01*
X144252758Y-110736661D01*
X144464990Y-111250303D01*
X144857630Y-111643629D01*
X145065512Y-111729949D01*
X144859697Y-111814990D01*
X144466371Y-112207630D01*
X144253243Y-112720900D01*
X144252758Y-113276661D01*
X144464990Y-113790303D01*
X144857630Y-114183629D01*
X145065512Y-114269949D01*
X144859697Y-114354990D01*
X144466371Y-114747630D01*
X144253243Y-115260900D01*
X144252758Y-115816661D01*
X144464990Y-116330303D01*
X144857630Y-116723629D01*
X145065512Y-116809949D01*
X144859697Y-116894990D01*
X144466371Y-117287630D01*
X144253243Y-117800900D01*
X144252758Y-118356661D01*
X144464990Y-118870303D01*
X144857630Y-119263629D01*
X145049727Y-119343395D01*
X144918857Y-119397603D01*
X144849392Y-119639787D01*
X145650000Y-120440395D01*
X146450608Y-119639787D01*
X146381143Y-119397603D01*
X146240682Y-119347491D01*
X146440303Y-119265010D01*
X146833629Y-118872370D01*
X147046757Y-118359100D01*
X147047242Y-117803339D01*
X147033857Y-117770945D01*
X148727800Y-116077002D01*
X148727800Y-119007398D01*
X147051916Y-120683282D01*
X147031362Y-120272632D01*
X146872397Y-119888857D01*
X146630213Y-119819392D01*
X145829605Y-120620000D01*
X145843748Y-120634143D01*
X145664143Y-120813748D01*
X145650000Y-120799605D01*
X144849392Y-121600213D01*
X144918857Y-121842397D01*
X145059318Y-121892509D01*
X144859697Y-121974990D01*
X144466371Y-122367630D01*
X144253243Y-122880900D01*
X144252758Y-123436661D01*
X144464990Y-123950303D01*
X144857630Y-124343629D01*
X145065512Y-124429949D01*
X144859697Y-124514990D01*
X144466371Y-124907630D01*
X144253243Y-125420900D01*
X144252758Y-125976661D01*
X144464990Y-126490303D01*
X144857630Y-126883629D01*
X145065512Y-126969949D01*
X144859697Y-127054990D01*
X144466371Y-127447630D01*
X144253243Y-127960900D01*
X144252758Y-128516661D01*
X144464990Y-129030303D01*
X144857630Y-129423629D01*
X145065512Y-129509949D01*
X144859697Y-129594990D01*
X144466371Y-129987630D01*
X144253243Y-130500900D01*
X144252758Y-131056661D01*
X144464990Y-131570303D01*
X144857630Y-131963629D01*
X145065512Y-132049949D01*
X144859697Y-132134990D01*
X144466371Y-132527630D01*
X144253243Y-133040900D01*
X144252758Y-133596661D01*
X144464990Y-134110303D01*
X144857630Y-134503629D01*
X145065512Y-134589949D01*
X144859697Y-134674990D01*
X144466371Y-135067630D01*
X144253243Y-135580900D01*
X144252758Y-136136661D01*
X144464990Y-136650303D01*
X144857630Y-137043629D01*
X145370900Y-137256757D01*
X145926661Y-137257242D01*
X146440303Y-137045010D01*
X146833629Y-136652370D01*
X147046757Y-136139100D01*
X147047242Y-135583339D01*
X147033857Y-135550945D01*
X152740000Y-129844802D01*
X152740000Y-131010000D01*
X152797852Y-131300839D01*
X152962599Y-131547401D01*
X156965817Y-135550619D01*
X156953243Y-135580900D01*
X156952758Y-136136661D01*
X157164990Y-136650303D01*
X157557630Y-137043629D01*
X158070900Y-137256757D01*
X158626661Y-137257242D01*
X159140303Y-137045010D01*
X159533629Y-136652370D01*
X159746757Y-136139100D01*
X159747242Y-135583339D01*
X159535010Y-135069697D01*
X159142370Y-134676371D01*
X158934488Y-134590051D01*
X159140303Y-134505010D01*
X159533629Y-134112370D01*
X159746757Y-133599100D01*
X159747242Y-133043339D01*
X159535010Y-132529697D01*
X159142370Y-132136371D01*
X158934488Y-132050051D01*
X159140303Y-131965010D01*
X159533629Y-131572370D01*
X159746757Y-131059100D01*
X159747242Y-130503339D01*
X159535010Y-129989697D01*
X159142370Y-129596371D01*
X158934488Y-129510051D01*
X159140303Y-129425010D01*
X159533629Y-129032370D01*
X159746757Y-128519100D01*
X159747242Y-127963339D01*
X159535010Y-127449697D01*
X159142370Y-127056371D01*
X158950273Y-126976605D01*
X159081143Y-126922397D01*
X159150608Y-126680213D01*
X158350000Y-125879605D01*
X158335858Y-125893748D01*
X158156253Y-125714143D01*
X158170395Y-125700000D01*
X158529605Y-125700000D01*
X159330213Y-126500608D01*
X159572397Y-126431143D01*
X159759144Y-125907698D01*
X159731362Y-125352632D01*
X159572397Y-124968857D01*
X159330213Y-124899392D01*
X158529605Y-125700000D01*
X158170395Y-125700000D01*
X157369787Y-124899392D01*
X157127603Y-124968857D01*
X156940856Y-125492302D01*
X156954753Y-125769951D01*
X155746300Y-124561498D01*
X155746300Y-119091102D01*
X156965817Y-120310619D01*
X156953243Y-120340900D01*
X156952758Y-120896661D01*
X157164990Y-121410303D01*
X157557630Y-121803629D01*
X157765512Y-121889949D01*
X157559697Y-121974990D01*
X157166371Y-122367630D01*
X156953243Y-122880900D01*
X156952758Y-123436661D01*
X157164990Y-123950303D01*
X157557630Y-124343629D01*
X157749727Y-124423395D01*
X157618857Y-124477603D01*
X157549392Y-124719787D01*
X158350000Y-125520395D01*
X159150608Y-124719787D01*
X159081143Y-124477603D01*
X158940682Y-124427491D01*
X159140303Y-124345010D01*
X159533629Y-123952370D01*
X159746757Y-123439100D01*
X159747242Y-122883339D01*
X159535010Y-122369697D01*
X159142370Y-121976371D01*
X158934488Y-121890051D01*
X159140303Y-121805010D01*
X159533629Y-121412370D01*
X159746757Y-120899100D01*
X159747242Y-120343339D01*
X159535010Y-119829697D01*
X159142370Y-119436371D01*
X158934488Y-119350051D01*
X159140303Y-119265010D01*
X159533629Y-118872370D01*
X159746757Y-118359100D01*
X159747242Y-117803339D01*
X159535010Y-117289697D01*
X159142370Y-116896371D01*
X158934488Y-116810051D01*
X159140303Y-116725010D01*
X159533629Y-116332370D01*
X159746757Y-115819100D01*
X159747242Y-115263339D01*
X159535010Y-114749697D01*
X159142370Y-114356371D01*
X158934488Y-114270051D01*
X159140303Y-114185010D01*
X159533629Y-113792370D01*
X159746757Y-113279100D01*
X159747242Y-112723339D01*
X159535010Y-112209697D01*
X159142370Y-111816371D01*
X158934488Y-111730051D01*
X159140303Y-111645010D01*
X159533629Y-111252370D01*
X159746757Y-110739100D01*
X159747242Y-110183339D01*
X159535010Y-109669697D01*
X159142370Y-109276371D01*
X158934488Y-109190051D01*
X159140303Y-109105010D01*
X159533629Y-108712370D01*
X159746757Y-108199100D01*
X159747242Y-107643339D01*
X159535010Y-107129697D01*
X159142370Y-106736371D01*
X158934488Y-106650051D01*
X159140303Y-106565010D01*
X159533629Y-106172370D01*
X159746757Y-105659100D01*
X159747242Y-105103339D01*
X159535010Y-104589697D01*
X159142370Y-104196371D01*
X158934488Y-104110051D01*
X159140303Y-104025010D01*
X159533629Y-103632370D01*
X159746757Y-103119100D01*
X159747242Y-102563339D01*
X159535010Y-102049697D01*
X159142370Y-101656371D01*
X158934488Y-101570051D01*
X159140303Y-101485010D01*
X159533629Y-101092370D01*
X159746757Y-100579100D01*
X159747242Y-100023339D01*
X159535010Y-99509697D01*
X159142370Y-99116371D01*
X158934488Y-99030051D01*
X159140303Y-98945010D01*
X159533629Y-98552370D01*
X159746757Y-98039100D01*
X159747242Y-97483339D01*
X159535010Y-96969697D01*
X159142370Y-96576371D01*
X158934488Y-96490051D01*
X159140303Y-96405010D01*
X159533629Y-96012370D01*
X159746757Y-95499100D01*
X159747242Y-94943339D01*
X159535010Y-94429697D01*
X159142370Y-94036371D01*
X158934488Y-93950051D01*
X159140303Y-93865010D01*
X159533629Y-93472370D01*
X159746757Y-92959100D01*
X159747242Y-92403339D01*
X159535010Y-91889697D01*
X159142370Y-91496371D01*
X158934488Y-91410051D01*
X159140303Y-91325010D01*
X159533629Y-90932370D01*
X159746757Y-90419100D01*
X159747242Y-89863339D01*
X159535010Y-89349697D01*
X159142370Y-88956371D01*
X158950273Y-88876605D01*
X159081143Y-88822397D01*
X159150608Y-88580213D01*
X158350000Y-87779605D01*
X158335858Y-87793748D01*
X158156253Y-87614143D01*
X158170395Y-87600000D01*
X158529605Y-87600000D01*
X159330213Y-88400608D01*
X159572397Y-88331143D01*
X159759144Y-87807698D01*
X159731362Y-87252632D01*
X159572397Y-86868857D01*
X159330213Y-86799392D01*
X158529605Y-87600000D01*
X158170395Y-87600000D01*
X158156253Y-87585858D01*
X158335858Y-87406253D01*
X158350000Y-87420395D01*
X159150608Y-86619787D01*
X159083696Y-86386506D01*
X159790000Y-85680202D01*
X159790000Y-137290000D01*
X144210000Y-137290000D01*
X144210000Y-120412302D01*
X144240856Y-120412302D01*
X144268638Y-120967368D01*
X144427603Y-121351143D01*
X144669787Y-121420608D01*
X145470395Y-120620000D01*
X144669787Y-119819392D01*
X144427603Y-119888857D01*
X144240856Y-120412302D01*
X144210000Y-120412302D01*
X144210000Y-89932302D01*
X144240856Y-89932302D01*
X144268638Y-90487368D01*
X144427603Y-90871143D01*
X144669787Y-90940608D01*
X145470395Y-90140000D01*
X144669787Y-89339392D01*
X144427603Y-89408857D01*
X144240856Y-89932302D01*
X144210000Y-89932302D01*
X144210000Y-85015702D01*
X145397077Y-86202779D01*
G36*
X157127000Y-79476250D02*
X157285750Y-79635000D01*
X157494600Y-79635000D01*
X157494600Y-83715198D01*
X155746300Y-85463498D01*
X155746300Y-81303802D01*
X156287401Y-80762701D01*
X156452148Y-80516139D01*
X156495104Y-80300187D01*
X156596431Y-80151890D01*
X156647440Y-79900000D01*
X156647440Y-79635000D01*
X156714250Y-79635000D01*
X156873000Y-79476250D01*
X156873000Y-78897440D01*
X157127000Y-78897440D01*
X157127000Y-79476250D01*
X157127000Y-79476250D01*
G37*
X157127000Y-79476250D02*
X157285750Y-79635000D01*
X157494600Y-79635000D01*
X157494600Y-83715198D01*
X155746300Y-85463498D01*
X155746300Y-81303802D01*
X156287401Y-80762701D01*
X156452148Y-80516139D01*
X156495104Y-80300187D01*
X156596431Y-80151890D01*
X156647440Y-79900000D01*
X156647440Y-79635000D01*
X156714250Y-79635000D01*
X156873000Y-79476250D01*
X156873000Y-78897440D01*
X157127000Y-78897440D01*
X157127000Y-79476250D01*
G36*
X147365000Y-80026310D02*
X147461673Y-80259699D01*
X147640302Y-80438327D01*
X147873691Y-80535000D01*
X147966250Y-80535000D01*
X148122998Y-80378252D01*
X148122998Y-80535000D01*
X148240000Y-80535000D01*
X148240000Y-82296400D01*
X148246555Y-82329353D01*
X147324400Y-81407198D01*
X147324400Y-79647440D01*
X147365000Y-79647440D01*
X147365000Y-80026310D01*
X147365000Y-80026310D01*
G37*
X147365000Y-80026310D02*
X147461673Y-80259699D01*
X147640302Y-80438327D01*
X147873691Y-80535000D01*
X147966250Y-80535000D01*
X148122998Y-80378252D01*
X148122998Y-80535000D01*
X148240000Y-80535000D01*
X148240000Y-82296400D01*
X148246555Y-82329353D01*
X147324400Y-81407198D01*
X147324400Y-79647440D01*
X147365000Y-79647440D01*
X147365000Y-80026310D01*
G36*
X155010583Y-69654743D02*
X155029477Y-69673670D01*
X154962362Y-69835301D01*
X154962038Y-70207267D01*
X155104083Y-70551043D01*
X155156375Y-70603427D01*
X155086808Y-70672873D01*
X154944162Y-71016401D01*
X154943838Y-71388367D01*
X155041659Y-71625113D01*
X154921162Y-71915301D01*
X154920928Y-72184196D01*
X154867957Y-72206083D01*
X154604708Y-72468873D01*
X154462062Y-72812401D01*
X154461738Y-73184367D01*
X154603783Y-73528143D01*
X154706356Y-73630895D01*
X154417657Y-73750183D01*
X154154408Y-74012973D01*
X154011762Y-74356501D01*
X154011438Y-74728467D01*
X154153483Y-75072243D01*
X154285174Y-75204164D01*
X153967357Y-75335483D01*
X153704108Y-75598273D01*
X153561462Y-75941801D01*
X153561309Y-76117599D01*
X153517057Y-76135883D01*
X153253808Y-76398673D01*
X153111162Y-76742201D01*
X153110838Y-77114167D01*
X153143389Y-77192947D01*
X153049157Y-77231883D01*
X152785908Y-77494673D01*
X152643262Y-77838201D01*
X152643075Y-78052560D01*
X152500000Y-78052560D01*
X152370411Y-78076944D01*
X152250000Y-78052560D01*
X151750000Y-78052560D01*
X151620411Y-78076944D01*
X151500000Y-78052560D01*
X151000000Y-78052560D01*
X150870411Y-78076944D01*
X150750000Y-78052560D01*
X150250000Y-78052560D01*
X150120411Y-78076944D01*
X150000000Y-78052560D01*
X149547132Y-78052560D01*
X149615243Y-78024417D01*
X149878492Y-77761627D01*
X150021138Y-77418099D01*
X150021462Y-77046133D01*
X149879417Y-76702357D01*
X149616627Y-76439108D01*
X149445221Y-76367934D01*
X149445362Y-76206133D01*
X149303317Y-75862357D01*
X149040527Y-75599108D01*
X148696999Y-75456462D01*
X148650123Y-75456421D01*
X148605498Y-75411796D01*
X148648043Y-75394217D01*
X148911292Y-75131427D01*
X149053938Y-74787899D01*
X149054262Y-74415933D01*
X148912217Y-74072157D01*
X148899299Y-74059217D01*
X148901192Y-74057327D01*
X149043838Y-73713799D01*
X149044162Y-73341833D01*
X148902117Y-72998057D01*
X148639327Y-72734808D01*
X148634974Y-72733001D01*
X148640743Y-72730617D01*
X148903992Y-72467827D01*
X149046638Y-72124299D01*
X149046962Y-71752333D01*
X148904917Y-71408557D01*
X148642127Y-71145308D01*
X148298599Y-71002662D01*
X148247440Y-71002617D01*
X148247440Y-71000000D01*
X148227550Y-70894295D01*
X148235000Y-70876310D01*
X148235000Y-70783750D01*
X148180111Y-70728861D01*
X148064090Y-70548559D01*
X147851890Y-70403569D01*
X147710812Y-70375000D01*
X148076250Y-70375000D01*
X148235000Y-70216250D01*
X148235000Y-70127000D01*
X154750000Y-70127000D01*
X154796159Y-70118315D01*
X154838553Y-70091035D01*
X154866994Y-70049410D01*
X154877000Y-70000000D01*
X154877000Y-69331447D01*
X155010583Y-69654743D01*
X155010583Y-69654743D01*
G37*
X155010583Y-69654743D02*
X155029477Y-69673670D01*
X154962362Y-69835301D01*
X154962038Y-70207267D01*
X155104083Y-70551043D01*
X155156375Y-70603427D01*
X155086808Y-70672873D01*
X154944162Y-71016401D01*
X154943838Y-71388367D01*
X155041659Y-71625113D01*
X154921162Y-71915301D01*
X154920928Y-72184196D01*
X154867957Y-72206083D01*
X154604708Y-72468873D01*
X154462062Y-72812401D01*
X154461738Y-73184367D01*
X154603783Y-73528143D01*
X154706356Y-73630895D01*
X154417657Y-73750183D01*
X154154408Y-74012973D01*
X154011762Y-74356501D01*
X154011438Y-74728467D01*
X154153483Y-75072243D01*
X154285174Y-75204164D01*
X153967357Y-75335483D01*
X153704108Y-75598273D01*
X153561462Y-75941801D01*
X153561309Y-76117599D01*
X153517057Y-76135883D01*
X153253808Y-76398673D01*
X153111162Y-76742201D01*
X153110838Y-77114167D01*
X153143389Y-77192947D01*
X153049157Y-77231883D01*
X152785908Y-77494673D01*
X152643262Y-77838201D01*
X152643075Y-78052560D01*
X152500000Y-78052560D01*
X152370411Y-78076944D01*
X152250000Y-78052560D01*
X151750000Y-78052560D01*
X151620411Y-78076944D01*
X151500000Y-78052560D01*
X151000000Y-78052560D01*
X150870411Y-78076944D01*
X150750000Y-78052560D01*
X150250000Y-78052560D01*
X150120411Y-78076944D01*
X150000000Y-78052560D01*
X149547132Y-78052560D01*
X149615243Y-78024417D01*
X149878492Y-77761627D01*
X150021138Y-77418099D01*
X150021462Y-77046133D01*
X149879417Y-76702357D01*
X149616627Y-76439108D01*
X149445221Y-76367934D01*
X149445362Y-76206133D01*
X149303317Y-75862357D01*
X149040527Y-75599108D01*
X148696999Y-75456462D01*
X148650123Y-75456421D01*
X148605498Y-75411796D01*
X148648043Y-75394217D01*
X148911292Y-75131427D01*
X149053938Y-74787899D01*
X149054262Y-74415933D01*
X148912217Y-74072157D01*
X148899299Y-74059217D01*
X148901192Y-74057327D01*
X149043838Y-73713799D01*
X149044162Y-73341833D01*
X148902117Y-72998057D01*
X148639327Y-72734808D01*
X148634974Y-72733001D01*
X148640743Y-72730617D01*
X148903992Y-72467827D01*
X149046638Y-72124299D01*
X149046962Y-71752333D01*
X148904917Y-71408557D01*
X148642127Y-71145308D01*
X148298599Y-71002662D01*
X148247440Y-71002617D01*
X148247440Y-71000000D01*
X148227550Y-70894295D01*
X148235000Y-70876310D01*
X148235000Y-70783750D01*
X148180111Y-70728861D01*
X148064090Y-70548559D01*
X147851890Y-70403569D01*
X147710812Y-70375000D01*
X148076250Y-70375000D01*
X148235000Y-70216250D01*
X148235000Y-70127000D01*
X154750000Y-70127000D01*
X154796159Y-70118315D01*
X154838553Y-70091035D01*
X154866994Y-70049410D01*
X154877000Y-70000000D01*
X154877000Y-69331447D01*
X155010583Y-69654743D01*
G36*
X156164683Y-67396838D02*
X155948559Y-67535910D01*
X155809888Y-67738862D01*
X155765000Y-67783750D01*
X155765000Y-67876310D01*
X155773468Y-67896753D01*
X155752560Y-68000000D01*
X155752560Y-68190755D01*
X155618533Y-68190638D01*
X155274757Y-68332683D01*
X155011508Y-68595473D01*
X154877000Y-68919403D01*
X154877000Y-68552606D01*
X155589803Y-67839803D01*
X155616994Y-67799410D01*
X155627000Y-67750000D01*
X155627000Y-67552606D01*
X155802606Y-67377000D01*
X156000000Y-67377000D01*
X156010630Y-67375000D01*
X156280742Y-67375000D01*
X156164683Y-67396838D01*
X156164683Y-67396838D01*
G37*
X156164683Y-67396838D02*
X155948559Y-67535910D01*
X155809888Y-67738862D01*
X155765000Y-67783750D01*
X155765000Y-67876310D01*
X155773468Y-67896753D01*
X155752560Y-68000000D01*
X155752560Y-68190755D01*
X155618533Y-68190638D01*
X155274757Y-68332683D01*
X155011508Y-68595473D01*
X154877000Y-68919403D01*
X154877000Y-68552606D01*
X155589803Y-67839803D01*
X155616994Y-67799410D01*
X155627000Y-67750000D01*
X155627000Y-67552606D01*
X155802606Y-67377000D01*
X156000000Y-67377000D01*
X156010630Y-67375000D01*
X156280742Y-67375000D01*
X156164683Y-67396838D01*
M02*
